<svg id="Instagram_mask.svg" xmlns="http://www.w3.org/2000/svg" width="20" height="20" viewBox="0 0 20 20">
  <defs>
    <style>
      .cls-1 {
        fill: #f7f9fa;
        fill-rule: evenodd;
      }
    </style>
  </defs>
  <path id="Rounded_Rectangle_1" data-name="Rounded Rectangle 1" class="cls-1" d="M701,56h20V76H701V56Zm13,17h-6a4,4,0,0,1-4-4V63a4,4,0,0,1,4-4h6a4,4,0,0,1,4,4v6A4,4,0,0,1,714,73Zm2-10a2,2,0,0,0-2-2h-6a2,2,0,0,0-2,2v6a2,2,0,0,0,2,2h6a2,2,0,0,0,2-2V63Zm-5,6a3,3,0,1,1,3-3A3,3,0,0,1,711,69Zm1-4h-2v2h2V65Z" transform="translate(-701 -56)"/>
</svg>
