<svg id="Livejournal_mask.svg" xmlns="http://www.w3.org/2000/svg" width="20" height="20" viewBox="0 0 20 20">
  <defs>
    <style>
      .cls-1 {
        fill: #f7f9fa;
        fill-rule: evenodd;
      }
    </style>
  </defs>
  <path id="Shape_50_copy" data-name="Shape 50 copy" class="cls-1" d="M620,56h20V76H620V56Zm13.274,14.487a8.213,8.213,0,0,1-.7.563c-2.684,2.254-5.877,2.628-7.389.846a4.078,4.078,0,0,1-.639-3.585,8.808,8.808,0,0,1,1.585-3.369l-0.395-.564a9.87,9.87,0,0,0-2.356,3.913c-0.03,0-.352,0-0.382.006a9.674,9.674,0,0,1,2.3-4.416L623.844,61.9c-0.415-.557.013-1.582,0.957-2.289s2.047-.828,2.462-0.272l1.352,1.81c2.839-1.777,6.105-1.576,7.579.161C638.019,63.457,636.577,67.372,633.274,70.487ZM628.7,66.076l0.39-.262-2.785-3.8-0.562.433ZM626.88,59.8a3.589,3.589,0,0,0-1.306.525,5.56,5.56,0,0,0-1.191,1.247l0.53,0.763a6.134,6.134,0,0,1,1.116-1.24,4.135,4.135,0,0,1,1.286-.655Zm0.79,1.28L627.1,61.5l2.865,3.7,0.4-.252Zm3.73,3.787,0.531,4.182,0.228-.444c0.04-.037.19-0.156,0.191-0.156,2.23-2.04,2.575-4.573,1.89-5.25-0.959-1.13-2.557-1.334-4.482-.578Zm4.285-2.751c-1.351-1.59-4.095-1.987-6.69-.534l0.4,0.6c4.382-2.026,6.208,1.171,5.52.361,1.29,1.518.151,3.8-2.256,6.109-0.041.035-.082,0.068-0.124,0.1h0l-0.571.448-0.037-.057-1.059-.457a0.5,0.5,0,0,1-.088-0.038l-2.8-1.206-1.469-1.972a7.425,7.425,0,0,0-1.47,3.093,3.21,3.21,0,0,0,.832,2.775c1.407,1.66,3.931,1.223,6.372-.906a11.141,11.141,0,0,0,2.709-3.156l0.008,0C636.217,64.99,636.893,63.543,635.685,62.121Z" transform="translate(-620 -56)"/>
</svg>
