<svg id="Odnoklassniki_mask.svg" xmlns="http://www.w3.org/2000/svg" width="20" height="20" viewBox="0 0 20 20">
  <defs>
    <style>
      .cls-1 {
        fill: #f7f9fa;
        fill-rule: evenodd;
      }
    </style>
  </defs>
  <path id="Одноклассники_copy_26" data-name="Одноклассники copy 26" class="cls-1" d="M307,56h20V76H307V56Zm10.5,10.99a3.5,3.5,0,1,1,3.518-3.5A3.507,3.507,0,0,1,317.5,66.99Zm0.008-5.034a1.519,1.519,0,1,0,1.536,1.518A1.528,1.528,0,0,0,317.505,61.956Zm-3.014,5.123a6.047,6.047,0,0,1,1.119.542,4.379,4.379,0,0,0,1.888.395,5.822,5.822,0,0,0,1.964-.357,6.006,6.006,0,0,1,1.116-.565c0.221,0.008.583,0.373,0.521,1.318-0.035.538-1.017,0.761-1.363,0.968a2.285,2.285,0,0,1-.726.246s0.847,0.906,1.063,1.129a2.677,2.677,0,0,1,.949,1.279,1.344,1.344,0,0,1-1,1,4.473,4.473,0,0,1-1.4-1.12c-0.583-.556-1.115-1.069-1.115-1.069s-0.547.486-1.116,1.048a4.6,4.6,0,0,1-1.368,1.14,1.438,1.438,0,0,1-1.061-1.16,6.317,6.317,0,0,1,1.24-1.486,8.189,8.189,0,0,1,.8-0.757,1.911,1.911,0,0,1-.638-0.208c-0.481-.268-1.511-0.547-1.484-1.043C313.9,67.87,314.035,67.08,314.491,67.079Z" transform="translate(-307 -56)"/>
</svg>
