<svg width="20" height="20" viewBox="0 0 20 20" fill="none" xmlns="http://www.w3.org/2000/svg">
<path fill-rule="evenodd" clip-rule="evenodd" d="M6.52764 3.94073C6.89764 4.54073 7.72758 5.98777 7.84758 6.25177C7.95019 6.42677 7.98247 6.63418 7.93792 6.83209C7.89336 7.03 7.7753 7.20361 7.60759 7.31775C7.28139 7.51554 6.97641 7.74645 6.69756 8.00677C6.55756 8.27377 6.42758 9.30678 7.96758 10.8398C9.50758 12.3728 10.7476 12.6828 11.0676 12.3398C11.3876 11.9968 11.5776 11.6178 11.7776 11.4178C11.9235 11.2591 12.1235 11.1608 12.3382 11.1423C12.5529 11.1238 12.7667 11.1864 12.9375 11.3177C13.785 11.7656 14.6034 12.2666 15.3876 12.8177C15.8776 13.1957 16.2476 13.4707 16.0676 13.9617C15.9025 14.4532 15.6292 14.9012 15.2676 15.2728C14.9732 15.5654 14.6108 15.7804 14.2129 15.8987C13.8151 16.0171 13.3941 16.0349 12.9876 15.9507C11.829 15.6663 10.7291 15.1813 9.7376 14.5178C8.68537 13.7648 7.70753 12.9129 6.81755 11.9738C6.004 11.1742 5.25813 10.3085 4.58757 9.38574C3.92899 8.28451 3.45293 7.08402 3.17766 5.83075C3.08559 5.4999 3.07665 5.15147 3.15166 4.81635C3.22668 4.48122 3.38326 4.16981 3.60759 3.90979C4.00773 3.49486 4.5175 3.20211 5.07756 3.06573C5.46756 2.96373 5.90764 2.96373 6.52764 3.94073ZM9.6176 4.09973V3.01776C11.3415 3.01776 12.9948 3.70258 14.2138 4.92157C15.4328 6.14056 16.1176 7.79385 16.1176 9.51776H15.0376C15.0369 8.08072 14.4655 6.70279 13.4491 5.68683C12.4328 4.67087 11.0546 4.1 9.6176 4.09973V4.09973ZM13.9476 9.51678H12.8676C12.8668 8.65507 12.5242 7.82886 11.9148 7.21954C11.3055 6.61022 10.4793 6.26758 9.6176 6.26678V5.18378C10.1865 5.18404 10.7497 5.29634 11.2752 5.51428C11.8007 5.73223 12.2781 6.05153 12.6802 6.45398C13.0823 6.85643 13.4011 7.33412 13.6186 7.8598C13.836 8.38549 13.9478 8.94887 13.9476 9.51776V9.51678Z" fill="#909090"/>
</svg>
