<svg width="20" height="20" viewBox="0 0 20 20" fill="none" xmlns="http://www.w3.org/2000/svg">
<path fill-rule="evenodd" clip-rule="evenodd" d="M10.0003 17C8.68042 16.9966 7.38878 16.6172 6.27613 15.906L3 17L4.09208 13.7169C3.26933 12.4015 2.90628 10.8495 3.06016 9.30481C3.21404 7.76017 3.87613 6.31059 4.94216 5.18405C6.0082 4.05751 7.41767 3.31792 8.94909 3.0816C10.4805 2.84528 12.047 3.12562 13.402 3.87857C14.757 4.63151 15.8237 5.81429 16.4344 7.24095C17.0451 8.66761 17.1651 10.2572 16.7756 11.7597C16.3861 13.2622 15.5092 14.5923 14.2827 15.5409C13.0562 16.4895 11.5497 17.0028 10.0003 17V17ZM11.5217 11.0491C11.9873 11.2 12.4609 11.3249 12.9404 11.4232C12.9908 11.4306 13.0392 11.4482 13.0827 11.4748C13.1262 11.5014 13.1639 11.5365 13.1936 11.5781C13.2232 11.6196 13.2442 11.6668 13.2552 11.7167C13.2662 11.7665 13.267 11.8181 13.2577 11.8683V12.1376C13.2623 12.2337 13.2445 12.3296 13.2056 12.4176C13.1668 12.5055 13.1079 12.5832 13.0337 12.6444C12.8037 12.8783 12.5313 13.0662 12.231 13.198C11.7881 13.2508 11.339 13.2116 10.9119 13.0829C10.4847 12.9542 10.0886 12.7387 9.74824 12.4499C9.30937 12.1549 8.89997 11.8184 8.52558 11.4447C8.15297 11.0677 7.81548 10.6573 7.51747 10.2188C7.23151 9.87755 7.01857 9.48114 6.89173 9.05409C6.7649 8.62705 6.72695 8.17851 6.78019 7.73617C6.91192 7.43707 7.09871 7.1655 7.33084 6.93573C7.38998 6.85994 7.46697 6.80006 7.55496 6.76154C7.64295 6.72302 7.73921 6.70703 7.8349 6.71503H8.1055C8.20759 6.7009 8.31118 6.7279 8.39342 6.79013C8.47566 6.85236 8.5298 6.94477 8.54416 7.04702C8.68416 7.60058 8.78686 8.0008 8.92687 8.44964C8.98287 8.63665 8.91761 8.68152 8.76827 8.79373C8.67493 8.86573 8.60025 8.91811 8.52558 8.97328C8.48228 8.99216 8.44343 9.01994 8.41153 9.05484C8.37964 9.08974 8.3554 9.13095 8.34044 9.17583C8.32547 9.22071 8.32004 9.26828 8.3246 9.31537C8.32916 9.36247 8.34358 9.40804 8.36687 9.44921C8.60524 9.90882 8.91032 10.3305 9.27221 10.7004C9.6409 11.0636 10.0627 11.3685 10.523 11.6046C10.5642 11.6275 10.6096 11.6416 10.6565 11.6461C10.7035 11.6505 10.7508 11.645 10.7955 11.6302C10.8403 11.6153 10.8815 11.5914 10.9165 11.5598C10.9516 11.5281 10.9795 11.4896 10.9989 11.4465C11.0549 11.3708 11.1016 11.2997 11.1763 11.2025C11.188 11.1689 11.2063 11.1379 11.2301 11.1116C11.2539 11.0852 11.2829 11.0639 11.3151 11.049C11.3473 11.0341 11.3823 11.0258 11.4178 11.0247C11.4532 11.0236 11.4886 11.0297 11.5217 11.0426V11.0426V11.0491Z" fill="#909090"/>
</svg>
