<svg id="Arrow_mask_and_white.svg" xmlns="http://www.w3.org/2000/svg" width="40" height="10" viewBox="0 0 40 10">
  <defs>
    <style>
      .cls-1 {
        fill: #fff;
      }

      .cls-1, .cls-2 {
        fill-rule: evenodd;
      }

      .cls-2 {
        fill: #333;
      }
    </style>
  </defs>
  <path id="Rounded_Rectangle_10_copy_28" data-name="Rounded Rectangle 10 copy 28" class="cls-1" d="M1123.72,5120.7l-4.02,4.02a1.014,1.014,0,0,1-1.41,0,1,1,0,0,1,0-1.41l2.32-2.31H1113a1,1,0,0,1,0-2h7.61l-2.32-2.32a0.984,0.984,0,0,1,0-1.4,1,1,0,0,1,1.41,0l4.02,4.02A0.984,0.984,0,0,1,1123.72,5120.7Z" transform="translate(-1098 -5115)"/>
  <path id="Rounded_Rectangle_10_copy_30" data-name="Rounded Rectangle 10 copy 30" class="cls-2" d="M1137.72,5120.7l-4.02,4.02a1.014,1.014,0,0,1-1.41,0,1,1,0,0,1,0-1.41l2.32-2.31H1127a1,1,0,0,1,0-2h7.61l-2.32-2.32a0.984,0.984,0,0,1,0-1.4,1,1,0,0,1,1.41,0l4.02,4.02A0.984,0.984,0,0,1,1137.72,5120.7Z" transform="translate(-1098 -5115)"/>
  <path id="Rounded_Rectangle_10_copy_27" data-name="Rounded Rectangle 10 copy 27" class="cls-1" d="M1109.72,5119.3l-4.02-4.02a1,1,0,0,0-.65-0.28H1110v4.96A0.986,0.986,0,0,0,1109.72,5119.3Zm-5.43-4.02a0.984,0.984,0,0,0,0,1.4l2.32,2.32H1099a1,1,0,0,0-1,1v-5h6.94A0.962,0.962,0,0,0,1104.29,5115.28ZM1099,5121h7.61l-2.32,2.31a1,1,0,0,0,0,1.41,1.031,1.031,0,0,0,.67.28H1098v-5A1,1,0,0,0,1099,5121Zm6.7,3.72,4.02-4.02a0.986,0.986,0,0,0,.28-0.66V5125h-4.97A1.031,1.031,0,0,0,1105.7,5124.72Z" transform="translate(-1098 -5115)"/>
</svg>
