<svg id="Ask_big.svg" xmlns="http://www.w3.org/2000/svg" width="58" height="56" viewBox="0 0 58 56">
  <defs>
    <style>
      .cls-1 {
        fill: #333;
        fill-rule: evenodd;
      }
    </style>
  </defs>
  <path id="Rounded_Rectangle_704" data-name="Rounded Rectangle 704" class="cls-1" d="M466.093,1056.01H417.906c-3.511,0-4.908-1.38-4.908-4.8l0-27.21,1-2,9.558-6.8,1.565,1.26-9.6,6.88L442,1042.06l26.473-18.72-9.6-6.89,1.565-1.25L470,1022l1,2v27.21C471,1054.63,469.605,1056.01,466.093,1056.01Zm2.907-30.6c-5.027,3.63-18.278,13.16-23.959,17.05a7.243,7.243,0,0,0-.645.5A3.4,3.4,0,0,1,442,1044a3.262,3.262,0,0,1-2.381-1.03,6.026,6.026,0,0,0-.577-0.44c-5.608-3.89-18.985-13.49-24.042-17.12V1051a2.973,2.973,0,0,0,.215,1.1c3.1-2.66,8.982-7.7,14.347-12.3l1.758,1.24-14.725,12.6a3.025,3.025,0,0,0,1.4.36h48a3.025,3.025,0,0,0,1.4-.36l-14.725-12.6,1.758-1.24c5.365,4.6,11.243,9.64,14.347,12.3A2.973,2.973,0,0,0,469,1051v-25.59ZM444,1029a2,2,0,1,1-2-2A2,2,0,0,1,444,1029Zm3.285-14.31c-3.517,3.51-4.192,3.1-4.285,7.31a1,1,0,0,1-2,0c0.006-4.4,1.2-5.46,4.756-8.68,1.549-1.46,3.236-3.28,3.252-5.45,0.031-4.16-3.419-5.9-6.642-5.92-4.061-.03-6.277,1.85-7.065,5.15a5.9,5.9,0,0,0-.3,1.9h0a1,1,0,0,1-1.993.03H432.99a7.269,7.269,0,0,1,.611-3.04c1.244-3.67,4.339-5.98,8.89-5.98,4.647,0,8.5,2.89,8.5,7.73C450.989,1010.88,449.42,1012.68,447.285,1014.69Z" transform="translate(-413 -1000)"/>
</svg>
