<svg id="Ask_medium.svg" xmlns="http://www.w3.org/2000/svg" width="40" height="40" viewBox="0 0 40 40">
  <defs>
    <style>
      .cls-1 {
        fill: #333;
        fill-rule: evenodd;
      }
    </style>
  </defs>
  <path id="_" data-name="?" class="cls-1" d="M720,1315h-0.165c-0.361,1.4-1.354,2-3.22,2H683.384c-1.865,0-2.858-.6-3.219-2H680l0.141-.12a6.043,6.043,0,0,1-.141-1.34V1293l7.169-5.38,1.6,1.25L683.32,1293,700,1305.64,716.68,1293l-5.446-4.13,1.6-1.25L720,1293h0v20.54a5.98,5.98,0,0,1-.142,1.34L720,1315h0Zm-2-17v-3.5L700,1308l-18-13.5v18.8l9.249-7.86,1.56,1.17-9.658,8.39h33.7l-9.658-8.39,1.56-1.17L718,1313.3V1298Zm-18-2.5a1.5,1.5,0,1,1-1.5,1.5A1.5,1.5,0,0,1,700,1295.5Zm0.986-3.51a5.345,5.345,0,0,1,.165-1.24,3.193,3.193,0,0,1,.605-1.13,6.6,6.6,0,0,1,1.494-1.66,12.8,12.8,0,0,0,2.993-2.94,5.946,5.946,0,0,0,.773-2.8,4.8,4.8,0,0,0-1.7-3.79,6.238,6.238,0,0,0-4.576-1.44,7.2,7.2,0,0,0-4.942,1.65c-1.246,1.1-1.575,2.27-1.827,4.34H695.9c0.242-1.54.462-2.35,1.24-3.07s2.485-.93,3.646-0.93a4.667,4.667,0,0,1,3,.88,2.866,2.866,0,0,1,1.21,2.46,3.207,3.207,0,0,1-.393,1.62,9.149,9.149,0,0,1-1.8,1.91c-0.944.83-1.926,1.63-2.29,2.06a6.824,6.824,0,0,0-1.137,1.62,3.608,3.608,0,0,0-.391,1.93c0,0.18,0,.17.015,0.53h1.982Z" transform="translate(-680 -1277)"/>
</svg>
