<svg width="20" height="20" viewBox="0 0 20 20" fill="none" xmlns="http://www.w3.org/2000/svg">
<path fill-rule="evenodd" clip-rule="evenodd" d="M10 20C12.6522 20 15.1957 18.9464 17.071 17.0711C18.9464 15.1957 20 12.6522 20 10C20 7.34784 18.9464 4.80429 17.071 2.92892C15.1957 1.05356 12.6522 0 10 0C7.34784 0 4.80432 1.05356 2.92896 2.92892C1.05359 4.80429 0 7.34784 0 10C0 12.6522 1.05359 15.1957 2.92896 17.0711C4.80432 18.9464 7.34784 20 10 20ZM6.92505 13.7502C7.87157 13.2479 8.92853 12.9901 10 13C11.0715 12.9901 12.1284 13.2479 13.075 13.7502C14.0215 14.2524 14.8276 14.9832 15.42 15.876C16.6044 14.7851 17.432 13.3621 17.7946 11.7933C18.1571 10.2244 18.0378 8.58262 17.4523 7.08264C16.8667 5.58266 15.8422 4.2943 14.5126 3.38602C13.183 2.47774 11.6102 1.99182 10 1.99182C8.38978 1.99182 6.81703 2.47774 5.48743 3.38602C4.15782 4.2943 3.13328 5.58266 2.54773 7.08264C1.96218 8.58262 1.84285 10.2244 2.20544 11.7933C2.56804 13.3621 3.3956 14.7851 4.57996 15.876C5.17239 14.9832 5.97853 14.2524 6.92505 13.7502ZM12.1997 15.5023C11.5183 15.1583 10.7632 14.9858 10 15C9.2368 14.9858 8.4817 15.1583 7.80029 15.5023C7.11888 15.8463 6.53174 16.3515 6.08997 16.974C7.28316 17.6472 8.62999 18.0009 10 18.0009C11.37 18.0009 12.7168 17.6472 13.91 16.974C13.4683 16.3515 12.8811 15.8463 12.1997 15.5023Z" fill="#333333"/>
<path fill-rule="evenodd" clip-rule="evenodd" d="M10 4C9.20887 4 8.43551 4.23459 7.77771 4.67412C7.11991 5.11364 6.60719 5.73836 6.30444 6.46927C6.00169 7.20017 5.92256 8.00444 6.0769 8.78036C6.23125 9.55629 6.61222 10.269 7.17163 10.8284C7.73104 11.3878 8.44368 11.7688 9.2196 11.9231C9.99553 12.0775 10.7999 11.9983 11.5308 11.6955C12.2617 11.3928 12.8864 10.8801 13.3259 10.2223C13.7655 9.56448 14 8.79113 14 8C14 6.93913 13.5785 5.92172 12.8284 5.17157C12.0782 4.42142 11.0609 4 10 4ZM8.8927 9.65526C9.22055 9.8739 9.60593 9.9904 10 9.99001V9.989C10.2614 9.989 10.5202 9.93749 10.7617 9.83742C11.0032 9.73735 11.2227 9.59069 11.4075 9.40579C11.5923 9.2209 11.7389 9.0014 11.8389 8.75984C11.9388 8.51829 11.9901 8.25942 11.99 7.998C11.99 7.60394 11.8731 7.21872 11.6542 6.8911C11.4352 6.56347 11.124 6.30815 10.7599 6.15744C10.3958 6.00673 9.99511 5.96739 9.60864 6.04442C9.22218 6.12144 8.86725 6.31136 8.58875 6.59015C8.31024 6.86894 8.1207 7.22407 8.04407 7.61061C7.96743 7.99715 8.00713 8.39773 8.1582 8.76169C8.30928 9.12564 8.56485 9.43662 8.8927 9.65526Z" fill="#333333"/>
</svg>
