<svg width="20" height="20" viewBox="0 0 20 20" fill="none" xmlns="http://www.w3.org/2000/svg">
<path fill-rule="evenodd" clip-rule="evenodd" d="M10 11.992C10.7911 11.992 11.5645 11.7574 12.2223 11.3179C12.8801 10.8784 13.3928 10.2536 13.6956 9.52274C13.9983 8.79183 14.0774 7.98756 13.9231 7.21164C13.7688 6.43572 13.3878 5.72298 12.8284 5.16357C12.269 4.60416 11.5563 4.2232 10.7804 4.06886C10.0045 3.91451 9.20014 3.99373 8.46924 4.29648C7.73833 4.59923 7.1136 5.11193 6.67407 5.76972C6.23455 6.42752 6 7.20087 6 7.992C5.99974 8.51745 6.10305 9.03781 6.30396 9.52335C6.50486 10.0089 6.79944 10.4501 7.1709 10.8217C7.54236 11.1934 7.98332 11.4882 8.46875 11.6893C8.95418 11.8905 9.47454 11.994 10 11.994V11.992ZM11.1058 6.33871C10.7784 6.12028 10.3936 6.0038 10 6.004V6.007C9.73842 6.007 9.47943 6.05857 9.23779 6.15877C8.99616 6.25896 8.77662 6.40581 8.5918 6.59092C8.40697 6.77603 8.26047 6.99576 8.16064 7.23754C8.06081 7.47933 8.00962 7.73842 8.01001 8C8.011 8.39361 8.1286 8.7781 8.34802 9.10488C8.56744 9.43166 8.87885 9.68607 9.2428 9.83597C9.60675 9.98587 10.0069 10.0245 10.3928 9.94706C10.7787 9.86959 11.1331 9.67947 11.411 9.40073C11.6889 9.12198 11.8779 8.76712 11.9542 8.38097C12.0305 7.99483 11.9907 7.59473 11.8397 7.23123C11.6887 6.86773 11.4333 6.55715 11.1058 6.33871Z" fill="#333333"/>
<path fill-rule="evenodd" clip-rule="evenodd" d="M0 10C9.88695e-07 11.9774 0.586198 13.9104 1.68457 15.5547C2.78294 17.1989 4.34422 18.4807 6.1709 19.2378C7.99758 19.995 10.0077 20.1936 11.9473 19.8086C13.8868 19.4235 15.6686 18.4721 17.0675 17.0746C18.4664 15.6771 19.4197 13.8962 19.8066 11.957C19.9346 11.3161 19.9987 10.6673 20 10.02V9.98001C19.9974 8.68234 19.7422 7.39106 19.2417 6.18009C18.4864 4.35266 17.2062 2.79018 15.563 1.69016C13.9198 0.590147 11.9874 0.00197739 10.01 0H9.98999C7.33956 0.00265043 4.79862 1.05739 2.92542 2.93246C1.05221 4.80754 -1.32522e-06 7.34957 0 10ZM10 17.9999C11.37 17.9999 12.7168 17.6462 13.91 16.973C13.4582 16.361 12.8691 15.8636 12.1899 15.5208C11.5108 15.178 10.7607 14.9994 10 14.9994C9.23928 14.9994 8.48917 15.178 7.81006 15.5208C7.13095 15.8636 6.54177 16.361 6.08997 16.973C7.28316 17.6462 8.62999 17.9999 10 17.9999ZM2.20544 11.7903C2.56804 13.3591 3.3956 14.7821 4.57996 15.873V15.875C5.17956 14.9893 5.98712 14.264 6.93188 13.7626C7.87665 13.2611 8.92993 12.9989 9.99951 12.9987C11.0691 12.9985 12.1224 13.2604 13.0674 13.7614C14.0123 14.2625 14.8201 14.9875 15.42 15.873C16.6044 14.7821 17.432 13.3591 17.7946 11.7903C18.1571 10.2214 18.0378 8.57963 17.4523 7.07965C16.8667 5.57967 15.8422 4.29129 14.5126 3.38301C13.183 2.47473 11.6102 1.98882 10 1.98882C8.38978 1.98882 6.81703 2.47473 5.48743 3.38301C4.15782 4.29129 3.13328 5.57967 2.54773 7.07965C1.96218 8.57963 1.84285 10.2214 2.20544 11.7903Z" fill="#333333"/>
</svg>
