<svg id="Cabinet_on_white.svg" xmlns="http://www.w3.org/2000/svg" width="20" height="20" viewBox="0 0 20 20">
  <defs>
    <style>
      .cls-1 {
        fill: #fff;
        fill-rule: evenodd;
      }
    </style>
  </defs>
  <path id="Ellipse_63_copy_16" data-name="Ellipse 63 copy 16" class="cls-1" d="M1659,141a10,10,0,1,1,10-10A10,10,0,0,1,1659,141Zm3.91-3.027a4.859,4.859,0,0,0-7.82,0A7.957,7.957,0,0,0,1662.91,137.973ZM1659,123a7.993,7.993,0,0,0-5.42,13.874,6.546,6.546,0,0,1,10.84,0A7.994,7.994,0,0,0,1659,123Zm0,9.994a4,4,0,1,1,4-4A4,4,0,0,1,1659,132.994Zm0-5.988a1.992,1.992,0,1,0,1.99,1.991A1.99,1.99,0,0,0,1659,127.006Z" transform="translate(-1649 -121)"/>
</svg>
