<svg id="Cabinet_off_white_mask.svg" xmlns="http://www.w3.org/2000/svg" width="18" height="18" viewBox="0 0 18 18">
  <defs>
    <style>
      .cls-1 {
        fill: #fff;
        fill-rule: evenodd;
      }
    </style>
  </defs>
  <path id="Ellipse_66_copy_7" data-name="Ellipse 66 copy 7" class="cls-1" d="M1696.48,180c-1.24-2.911-4.56-5-8.48-5s-7.24,2.089-8.48,5H1679V162h9a6,6,0,1,0,6,6,6,6,0,0,0-6-6h9v18h-0.52Zm-8.48-8a4,4,0,1,1,4-4A4,4,0,0,1,1688,172Zm0,5a7.389,7.389,0,0,1,6.23,3h-12.46A7.389,7.389,0,0,1,1688,177Z" transform="translate(-1679 -162)"/>
</svg>
