<svg width="18" height="18" viewBox="0 0 18 18" fill="none" xmlns="http://www.w3.org/2000/svg">
<path fill-rule="evenodd" clip-rule="evenodd" d="M9 0C7.81331 0 6.65332 0.351896 5.66663 1.01118C4.67993 1.67047 3.91079 2.60755 3.45667 3.7039C3.00254 4.80026 2.88372 6.00666 3.11523 7.17055C3.34675 8.33443 3.91821 9.40353 4.75732 10.2426C5.59644 11.0818 6.66558 11.6532 7.82947 11.8847C8.99335 12.1162 10.1998 11.9974 11.2961 11.5433C12.3925 11.0891 13.3295 10.3201 13.9888 9.33342C14.6481 8.34672 15 7.18669 15 6C15 4.4087 14.3679 2.88257 13.2427 1.75735C12.1175 0.632136 10.5913 0 9 0ZM6.77771 9.32588C7.43551 9.76541 8.20887 10 9 10C10.0609 10 11.0782 9.57858 11.8284 8.82843C12.5785 8.07828 13 7.06087 13 6C13 5.20887 12.7655 4.43552 12.3259 3.77773C11.8864 3.11993 11.2617 2.60724 10.5308 2.30449C9.79986 2.00174 8.99553 1.92252 8.2196 2.07686C7.44368 2.2312 6.73104 2.61216 6.17163 3.17157C5.61222 3.73098 5.23125 4.44371 5.0769 5.21964C4.92256 5.99556 5.00169 6.79983 5.30444 7.53073C5.60719 8.26164 6.11991 8.88636 6.77771 9.32588Z" fill="#333333"/>
<path d="M17.48 18C16.24 15.089 12.92 13 9 13C5.08 13 1.76002 15.089 0.52002 18H2.77002C3.48504 17.0298 4.42656 16.2492 5.51245 15.7263C6.59835 15.2034 7.79564 14.954 9 15C10.2044 14.954 11.4017 15.2034 12.4875 15.7263C13.5734 16.2492 14.515 17.0298 15.23 18H17.48Z" fill="#333333"/>
</svg>
