<svg id="Cabinet_on_white_mask.svg" xmlns="http://www.w3.org/2000/svg" width="20" height="20" viewBox="0 0 20 20">
  <defs>
    <style>
      .cls-1 {
        fill: #fff;
        fill-rule: evenodd;
      }
    </style>
  </defs>
  <path id="Ellipse_63_copy_15" data-name="Ellipse 63 copy 15" class="cls-1" d="M1659,181a10,10,0,0,0,10-10v10h-10Zm0-7a6.433,6.433,0,0,0-5.42,2.876,8,8,0,1,1,10.84,0A6.433,6.433,0,0,0,1659,174Zm0-9a4,4,0,1,0,4,4A4,4,0,0,0,1659,165Zm0,5.99a1.992,1.992,0,1,1,1.99-1.992A1.99,1.99,0,0,1,1659,170.989Zm0,5.01a4.688,4.688,0,0,1,3.91,1.974,7.957,7.957,0,0,1-7.82,0A4.688,4.688,0,0,1,1659,176Zm0-15h10v10A10,10,0,0,0,1659,161Zm-10,10V161h10A10,10,0,0,0,1649,171Zm10,10h-10V171A10,10,0,0,0,1659,181Z" transform="translate(-1649 -161)"/>
</svg>
