<svg width="12" height="13" viewBox="0 0 12 13" fill="none" xmlns="http://www.w3.org/2000/svg">
<path d="M6 9C4.71478 8.98029 3.45366 9.35015 2.38269 10.0609C1.31172 10.7717 0.48108 11.7901 0 12.982L2.06006 13C2.51323 12.3803 3.10617 11.8762 3.79077 11.5287C4.47537 11.1812 5.23226 11.0001 6 11.0001C6.76774 11.0001 7.52463 11.1812 8.20923 11.5287C8.89383 11.8762 9.48677 12.3803 9.93994 13L12 12.983C11.5191 11.7909 10.6884 10.7723 9.61743 10.0613C8.54645 9.35038 7.28533 8.98037 6 9Z" fill="#333333"/>
<path fill-rule="evenodd" clip-rule="evenodd" d="M6 0C4.93957 0.00132554 3.92309 0.423683 3.17395 1.17422C2.42481 1.92477 2.00434 2.94206 2.005 4.00249C2.00567 5.06293 2.42742 6.0797 3.17749 6.82931C3.92756 7.57891 4.94457 8 6.005 8C7.06544 8 8.08245 7.57891 8.83252 6.82931C9.58259 6.0797 10.0043 5.06293 10.005 4.00249C10.0057 2.94206 9.5852 1.92477 8.83606 1.17422C8.08692 0.423683 7.07044 0.00132554 6.01001 0H6ZM7.65417 5.10531C7.87296 4.77819 7.98979 4.39354 7.98999 4C7.99012 3.73859 7.93882 3.4797 7.83887 3.23815C7.73892 2.9966 7.59227 2.7771 7.40747 2.59221C7.22267 2.40731 7.00322 2.26065 6.76172 2.16058C6.52022 2.06051 6.26141 2.009 6 2.009C5.60646 2.009 5.22176 2.12569 4.89453 2.34431C4.5673 2.56293 4.31227 2.87366 4.16162 3.23723C4.01097 3.6008 3.97151 4.00087 4.04822 4.38686C4.12492 4.77286 4.31432 5.12745 4.59253 5.40579C4.87074 5.68414 5.22525 5.87374 5.61121 5.95064C5.99716 6.02754 6.39722 5.98827 6.76086 5.83781C7.12451 5.68734 7.43539 5.43243 7.65417 5.10531Z" fill="#333333"/>
</svg>
