<svg width="8" height="18" viewBox="0 0 8 18" fill="none" xmlns="http://www.w3.org/2000/svg">
<path fill-rule="evenodd" clip-rule="evenodd" d="M7 14V4C7 3.20435 6.68395 2.44127 6.12134 1.87866C5.55873 1.31605 4.79565 1 4 1C3.20435 1 2.44127 1.31605 1.87866 1.87866C1.31605 2.44127 1 3.20435 1 4V15C1 15.5304 1.21074 16.0391 1.58582 16.4142C1.96089 16.7893 2.46957 17 3 17C3.53043 17 4.03911 16.7893 4.41418 16.4142C4.78926 16.0391 5 15.5304 5 15V6C5 5.73478 4.89463 5.48044 4.70709 5.29291C4.51956 5.10537 4.26522 5 4 5C3.73478 5 3.48044 5.10537 3.29291 5.29291C3.10537 5.48044 3 5.73478 3 6V14H2V6C2 5.46957 2.21074 4.96089 2.58582 4.58582C2.96089 4.21074 3.46957 4 4 4C4.53043 4 5.03911 4.21074 5.41418 4.58582C5.78926 4.96089 6 5.46957 6 6V15C6 15.7956 5.68395 16.5587 5.12134 17.1213C4.55873 17.6839 3.79565 18 3 18C2.20435 18 1.44127 17.6839 0.878662 17.1213C0.316053 16.5587 0 15.7956 0 15V6V4C0 2.93913 0.421424 1.92172 1.17157 1.17157C1.92172 0.421424 2.93913 0 4 0C5.06087 0 6.07828 0.421424 6.82843 1.17157C7.57858 1.92172 8 2.93913 8 4V14H7Z" fill="white"/>
</svg>
