<svg id="Dribble_mask.svg" xmlns="http://www.w3.org/2000/svg" width="20" height="20" viewBox="0 0 20 20">
  <defs>
    <style>
      .cls-1 {
        fill: #f7f9fa;
        fill-rule: evenodd;
      }
    </style>
  </defs>
  <path class="cls-1" d="M660,56h20V76H660V56Zm10,17a7,7,0,1,1,7-7A7,7,0,0,1,670,73Zm4.842-4.972a6.416,6.416,0,0,0-1.78-.277,6.6,6.6,0,0,0-.776.058,13.623,13.623,0,0,1,.323,2.722A5.249,5.249,0,0,0,674.842,68.027Zm-3.985,3.136c0-.118.018-0.233,0.018-0.351a11.723,11.723,0,0,0-.293-2.559,6.611,6.611,0,0,0-2.963,2.4A4.842,4.842,0,0,0,670.857,71.163Zm-4.627-1.522a8.333,8.333,0,0,1,3.851-3.071c-0.137-.353-0.292-0.7-0.461-1.033a8.058,8.058,0,0,1-4.841.169c0,0.1-.029.192-0.029,0.293A5.222,5.222,0,0,0,666.23,69.642Zm0.516-7.732a5.232,5.232,0,0,0-1.588,2.063,6.407,6.407,0,0,0,1.78.278A6.558,6.558,0,0,0,668.687,64,12.1,12.1,0,0,0,666.746,61.909Zm1.643-.881a13.9,13.9,0,0,1,1.938,2.261,6.64,6.64,0,0,0,2.042-1.95A4.952,4.952,0,0,0,668.389,61.028Zm5.4,1.347a8.374,8.374,0,0,1-2.567,2.43,13.158,13.158,0,0,1,.557,1.3A8.324,8.324,0,0,1,673.062,66a8.173,8.173,0,0,1,2.158.293c0.006-.1.03-0.192,0.03-0.293A5.223,5.223,0,0,0,673.785,62.375Z" transform="translate(-660 -56)"/>
</svg>
