<svg id="Phone_footer.svg" xmlns="http://www.w3.org/2000/svg" width="10" height="13" viewBox="0 0 10 13">
  <defs>
    <style>
      .cls-1 {
        fill: #333;
        fill-rule: evenodd;
      }
    </style>
  </defs>
  <path id="Shape_51_copy_9" data-name="Shape 51 copy 9" class="cls-1" d="M761.281,5789.04a25.418,25.418,0,0,0,2.33,1.28,0.651,0.651,0,0,1,.351.9l-0.133.45a1.063,1.063,0,0,1-.636.76,4.918,4.918,0,0,1-1.683.57c-1.615.04-3.041-1.27-4.041-2.37a14.294,14.294,0,0,1-1.691-2.25,13.727,13.727,0,0,1-1.193-2.53c-0.493-1.37-.966-3.21-0.129-4.53a4.9,4.9,0,0,1,1.364-1.11,1.119,1.119,0,0,1,1-.14l0.476,0.11a0.682,0.682,0,0,1,.616.76c-0.007,1-.023,1.72.012,2.55,0.014,0.34-.125.39-0.448,0.51-0.208.08-.359,0.14-0.521,0.2a0.6,0.6,0,0,0-.507.73,8.608,8.608,0,0,0,1,2.52,8.917,8.917,0,0,0,1.785,2.1,0.65,0.65,0,0,0,.918-0.06c0.135-.1.262-0.2,0.437-0.33a0.5,0.5,0,0,1,.687-0.12h0Z" transform="translate(-754 -5780)"/>
</svg>
