<svg id="Quote_review_mask.svg" xmlns="http://www.w3.org/2000/svg" width="22" height="16" viewBox="0 0 22 16">
  <defs>
    <style>
      .cls-1 {
        fill: #fff;
        fill-rule: evenodd;
      }
    </style>
  </defs>
  <path id="Rounded_Rectangle_678_copy_3" data-name="Rounded Rectangle 678 copy 3" class="cls-1" d="M686,519a6,6,0,0,0,6-6v6h-6Zm0-2a3.983,3.983,0,0,1-3.185-6.4,1.423,1.423,0,0,1,.088-0.185l3.748-4.906a1.27,1.27,0,0,1,1.843-.238,1.428,1.428,0,0,1,.227,1.937L687.2,509.2A3.989,3.989,0,0,1,686,517Zm-10,0a3.983,3.983,0,0,1-3.185-6.4,1.423,1.423,0,0,1,.088-0.185l3.748-4.906a1.27,1.27,0,0,1,1.843-.238,1.428,1.428,0,0,1,.227,1.937L677.2,509.2A3.989,3.989,0,0,1,676,517Zm14.32-8.78a3.333,3.333,0,0,0-.529-4.522,2.965,2.965,0,0,0-4.3.555l-3.7,4.48a6.058,6.058,0,0,0-.8,1,6.133,6.133,0,0,0-.961-1.151l0.3-.357a3.333,3.333,0,0,0-.529-4.522,2.965,2.965,0,0,0-4.3.555l-3.7,4.48A5.976,5.976,0,0,0,670,513V503h22v10a5.962,5.962,0,0,0-1.976-4.423ZM676,519h-6v-6A6,6,0,0,0,676,519Zm5-2.691A5.989,5.989,0,0,0,686,519H676A5.989,5.989,0,0,0,681,516.309Z" transform="translate(-670 -503)"/>
</svg>
