<svg id="Quote_mask_right.svg" xmlns="http://www.w3.org/2000/svg" width="22" height="15" viewBox="0 0 22 15">
  <defs>
    <style>
      .cls-1 {
        fill: #fff;
        fill-rule: evenodd;
      }
    </style>
  </defs>
  <path id="Rounded_Rectangle_24_copy_19" data-name="Rounded Rectangle 24 copy 19" class="cls-1" d="M1168,1565h22v15h-22v-15Zm21.68,6.33c-0.01.04-.03,0.07-0.04,0.11a1.894,1.894,0,0,1-.09.21,1.146,1.146,0,0,1-.1.23l-0.15.2a3.941,3.941,0,0,1-.38.53l-4.86,6.76a1.66,1.66,0,0,1-2.15.41,1.338,1.338,0,0,1-.45-1.95l2.52-3.49a4.807,4.807,0,0,1-3.98-4.62,5.008,5.008,0,0,1,10,0A4.319,4.319,0,0,1,1189.68,1571.33Zm-12.04.11a1.894,1.894,0,0,1-.09.21,1.146,1.146,0,0,1-.1.23l-0.15.2a3.941,3.941,0,0,1-.38.53l-4.86,6.76a1.66,1.66,0,0,1-2.15.41,1.338,1.338,0,0,1-.45-1.95l2.52-3.49a4.807,4.807,0,0,1-3.98-4.62,5.008,5.008,0,0,1,10,0,4.319,4.319,0,0,1-.32,1.61C1177.67,1571.37,1177.65,1571.4,1177.64,1571.44Z" transform="translate(-1168 -1565)"/>
</svg>
