<svg id="Quote_mask.svg" xmlns="http://www.w3.org/2000/svg" width="44" height="30" viewBox="0 0 44 30">
  <defs>
    <style>
      .cls-1 {
        fill: #fff;
        fill-rule: evenodd;
      }
    </style>
  </defs>
  <path id="Rounded_Rectangle_24_copy_22" data-name="Rounded Rectangle 24 copy 22" class="cls-1" d="M640,1372h44v30H640v-30Zm36.042,11.32a9.593,9.593,0,0,1,7.958,9.24,10.017,10.017,0,0,1-20,0,8.941,8.941,0,0,1,.654-3.33,2.584,2.584,0,0,1,.44-0.98l0.066-.1a9.792,9.792,0,0,1,1.224-1.7l9.5-13.19a3.3,3.3,0,0,1,4.294-.81,2.642,2.642,0,0,1,.9,3.88ZM660,1392.56a10.017,10.017,0,0,1-20,0,8.941,8.941,0,0,1,.654-3.33,2.568,2.568,0,0,1,.44-0.98l0.067-.1a9.734,9.734,0,0,1,1.223-1.7l9.5-13.19a3.3,3.3,0,0,1,4.294-.81,2.642,2.642,0,0,1,.9,3.88l-5.032,6.99A9.594,9.594,0,0,1,660,1392.56Z" transform="translate(-640 -1372)"/>
</svg>
