<svg id="Quote_mask_left.svg" xmlns="http://www.w3.org/2000/svg" width="22" height="15" viewBox="0 0 22 15">
  <defs>
    <style>
      .cls-1 {
        fill: #fff;
        fill-rule: evenodd;
      }
    </style>
  </defs>
  <path id="Rounded_Rectangle_24_copy_19" data-name="Rounded Rectangle 24 copy 19" class="cls-1" d="M1218,1565h22v15h-22v-15Zm0.32,8.67c0.01-.04.03-0.07,0.04-0.11a1.894,1.894,0,0,1,.09-0.21,1.146,1.146,0,0,1,.1-0.23l0.15-.2a3.941,3.941,0,0,1,.38-0.53l4.86-6.76a1.66,1.66,0,0,1,2.15-.41,1.338,1.338,0,0,1,.45,1.95l-2.52,3.49a4.807,4.807,0,0,1,3.98,4.62,5.008,5.008,0,0,1-10,0A4.319,4.319,0,0,1,1218.32,1573.67Zm12.04-.11a1.894,1.894,0,0,1,.09-0.21,1.146,1.146,0,0,1,.1-0.23l0.15-.2a3.941,3.941,0,0,1,.38-0.53l4.86-6.76a1.66,1.66,0,0,1,2.15-.41,1.338,1.338,0,0,1,.45,1.95l-2.52,3.49a4.807,4.807,0,0,1,3.98,4.62,5.008,5.008,0,0,1-10,0,4.319,4.319,0,0,1,.32-1.61C1230.33,1573.63,1230.35,1573.6,1230.36,1573.56Z" transform="translate(-1218 -1565)"/>
</svg>
