<svg width="20" height="20" viewBox="0 0 20 20" fill="none" xmlns="http://www.w3.org/2000/svg">
<path fill-rule="evenodd" clip-rule="evenodd" d="M16.74 15.739C16.5513 15.9266 16.2961 16.0319 16.03 16.0319C15.764 16.0319 15.5086 15.9266 15.3199 15.739L12.61 13.029C11.697 13.6632 10.6116 14.0021 9.5 14C8.2688 14.0016 7.07262 13.5906 6.10241 12.8326C5.13221 12.0746 4.44389 11.0134 4.14758 9.81837C3.85127 8.62336 3.96407 7.36351 4.46777 6.24006C4.97147 5.1166 5.83705 4.19434 6.92639 3.62058C8.01572 3.04681 9.26592 2.85464 10.4773 3.07475C11.6887 3.29486 12.7913 3.91456 13.6091 4.83487C14.427 5.75517 14.9129 6.92301 14.9891 8.15184C15.0654 9.38068 14.7278 10.5996 14.03 11.614L16.74 14.324C16.833 14.4169 16.9067 14.5272 16.957 14.6486C17.0074 14.77 17.0333 14.9001 17.0333 15.0315C17.0333 15.1629 17.0074 15.2931 16.957 15.4145C16.9067 15.5359 16.833 15.6462 16.74 15.739ZM7.55554 5.58988C8.13111 5.2053 8.80776 5.00003 9.5 5.00003C10.4283 5.00003 11.3185 5.36878 11.9749 6.02515C12.6312 6.68153 13 7.57177 13 8.50003C13 9.19226 12.7947 9.86895 12.4102 10.4445C12.0256 11.0201 11.4789 11.4687 10.8394 11.7336C10.1998 11.9985 9.49607 12.0678 8.81714 11.9328C8.1382 11.7977 7.51463 11.4644 7.02514 10.9749C6.53566 10.4854 6.20231 9.86178 6.06726 9.18284C5.93221 8.50391 6.00157 7.80017 6.26648 7.16063C6.53138 6.52109 6.97997 5.97447 7.55554 5.58988Z" fill="#333333"/>
</svg>
