<svg id="Service_icon.svg" xmlns="http://www.w3.org/2000/svg" width="42" height="40" viewBox="0 0 42 40">
  <defs>
    <style>
      .cls-1 {
        fill: #333;
        fill-rule: evenodd;
      }
    </style>
  </defs>
  <path id="Rounded_Rectangle_674" data-name="Rounded Rectangle 674" class="cls-1" d="M386,2187.5a2.5,2.5,0,0,1-2.5,2.5c-0.02,0-.039-0.01-0.06-0.01l0,0.01-1.5-.03s1.324,3.24,1.782,4.75c0,0.01,0,.02,0,0.04A2.984,2.984,0,0,1,381,2199c-1.792,0-2.19-.45-2.74-1.14a0.035,0.035,0,0,1-.017-0.02,2.99,2.99,0,0,1-.418-0.69c-0.943-1.73-1.888-3.96-1.888-3.96l0.018-.25a2.5,2.5,0,0,1-4.955-.44,2.364,2.364,0,0,1,.046-0.45L371,2192v-12a3,3,0,0,1,5.12-2.12h0l9.031,7.71-0.012.04A2.483,2.483,0,0,1,386,2187.5Zm-2-.5-10-8-1,.69V2193h1l2.36-3.93,3.017,7.02c0.009,0.03.006,0.05,0.017,0.08a1.351,1.351,0,0,0,1.821.71,1.462,1.462,0,0,0,.68-1.9c-0.008-.02-0.025-0.03-0.034-0.05l0.012-.01-2.964-6.92H384v-1Zm-32,7h6a1,1,0,0,1,0,2h-6A1,1,0,0,1,352,2194Zm13-3H352a1,1,0,0,1,0-2h13A1,1,0,0,1,365,2191Zm0-10H352a1,1,0,0,1,0-2h13A1,1,0,0,1,365,2181Zm0,5H352a1,1,0,0,1,0-2h13A1,1,0,0,1,365,2186Zm11-15a1,1,0,0,0-1-1h-3.142a3.993,3.993,0,0,1-3.858,3H354a3.992,3.992,0,0,1-3.858-3H347a1,1,0,0,0-1,1v31a1,1,0,0,0,1,1h28a1,1,0,0,0,1-1v-3l2,2v1a3,3,0,0,1-3,3H347a3,3,0,0,1-3-3v-31a3,3,0,0,1,3-3h3.141a3.994,3.994,0,0,1,3.859-3h14a3.992,3.992,0,0,1,3.858,3H375a3,3,0,0,1,3,3v5.33l-2-1.66V2171Zm-8-4H354a2,2,0,0,0,0,4h14A2,2,0,0,0,368,2167Z" transform="translate(-344 -2165)"/>
</svg>
