<svg id="Share_Print_RSS.svg" xmlns="http://www.w3.org/2000/svg" width="108" height="16" viewBox="0 0 108 16">
  <defs>
    <style>
      .cls-1 {
        fill: #fff;
      }

      .cls-1, .cls-2 {
        fill-rule: evenodd;
      }

      .cls-2 {
        fill: #333;
      }
    </style>
  </defs>
  <path id="Ellipse_217_copy_5" data-name="Ellipse 217 copy 5" class="cls-1" d="M1549,238a1,1,0,0,1-1-1v-1a10,10,0,0,0-10-10h-1a1,1,0,0,1,0-2h1a12,12,0,0,1,12,12v1A1,1,0,0,1,1549,238Zm-12-9h1a7,7,0,0,1,7,7v1a1,1,0,0,1-2,0v-1a5,5,0,0,0-5-5h-1A1,1,0,0,1,1537,229Zm1,5a2,2,0,1,1-2,2A2,2,0,0,1,1538,234Z" transform="translate(-1536 -223)"/>
  <path id="Ellipse_217_copy_6" data-name="Ellipse 217 copy 6" class="cls-2" d="M1567,238a1,1,0,0,1-1-1v-1a10,10,0,0,0-10-10h-1a1,1,0,0,1,0-2h1a12,12,0,0,1,12,12v1A1,1,0,0,1,1567,238Zm-12-9h1a7,7,0,0,1,7,7v1a1,1,0,0,1-2,0v-1a5,5,0,0,0-5-5h-1A1,1,0,0,1,1555,229Zm1,5a2,2,0,1,1-2,2A2,2,0,0,1,1556,234Z" transform="translate(-1536 -223)"/>
  <path id="Rectangle_404_copy_5" data-name="Rectangle 404 copy 5" class="cls-1" d="M1586,236h-2v3h-8v-3h-2a2,2,0,0,1-2-2v-5a2,2,0,0,1,2-2h2v-4h8v4h2a2,2,0,0,1,2,2v5A2,2,0,0,1,1586,236Zm-8,1h4v-4h-4v4Zm4-12h-4v2h4v-2Zm4,4h-12v5h2v-3h8v3h2v-5Z" transform="translate(-1536 -223)"/>
  <path id="Rectangle_404_copy_4" data-name="Rectangle 404 copy 4" class="cls-2" d="M1606,236h-2v3h-8v-3h-2a2,2,0,0,1-2-2v-5a2,2,0,0,1,2-2h2v-4h8v4h2a2,2,0,0,1,2,2v5A2,2,0,0,1,1606,236Zm-8,1h4v-4h-4v4Zm4-12h-4v2h4v-2Zm4,4h-12v5h2v-3h8v3h2v-5Z" transform="translate(-1536 -223)"/>
  <path id="Ellipse_223_copy_5" data-name="Ellipse 223 copy 5" class="cls-1" d="M1623,229a2.967,2.967,0,0,1-1.86-.661l-3.22,2.009a2.693,2.693,0,0,1,0,1.3l3.22,2.009A2.966,2.966,0,0,1,1623,233a3,3,0,1,1-3,3,2.788,2.788,0,0,1,.08-0.65l-3.22-2.01a3,3,0,1,1,0-4.679l3.22-2.01A2.8,2.8,0,0,1,1620,226,3,3,0,1,1,1623,229Zm0,8a1,1,0,1,0-1-1A1,1,0,0,0,1623,237Zm-8-7a1,1,0,1,0,1,1A1,1,0,0,0,1615,230Zm8-5a1,1,0,1,0,1,1A1,1,0,0,0,1623,225Z" transform="translate(-1536 -223)"/>
  <path id="Ellipse_223_copy_6" data-name="Ellipse 223 copy 6" class="cls-2" d="M1641,229a2.967,2.967,0,0,1-1.86-.661l-3.22,2.009a2.693,2.693,0,0,1,0,1.3l3.22,2.009A2.966,2.966,0,0,1,1641,233a3,3,0,1,1-3,3,2.788,2.788,0,0,1,.08-0.65l-3.22-2.01a3,3,0,1,1,0-4.679l3.22-2.01A2.8,2.8,0,0,1,1638,226,3,3,0,1,1,1641,229Zm0,8a1,1,0,1,0-1-1A1,1,0,0,0,1641,237Zm-8-7a1,1,0,1,0,1,1A1,1,0,0,0,1633,230Zm8-5a1,1,0,1,0,1,1A1,1,0,0,0,1641,225Z" transform="translate(-1536 -223)"/>
</svg>
