<svg xmlns="http://www.w3.org/2000/svg" width="58" height="56" viewBox="0 0 58 56">
  <defs>
    <style>
      .cls-1 {
        fill: #333;
        fill-rule: evenodd;
      }
    </style>
  </defs>
  <path id="Rounded_Rectangle_2" data-name="Rounded Rectangle 2" class="cls-1" d="M1498,520a3,3,0,0,1-3,3h-2.94l3.56,7.281-0.02.011A3.922,3.922,0,0,1,1496,532a3.989,3.989,0,0,1-7.52,1.868l-0.01.007-0.12-.258a0.332,0.332,0,0,1-.04-0.086l-3.24-6.847-1.54,1.941-0.01,0A3,3,0,0,1,1478,527V509a2.99,2.99,0,0,1,5-2.224l13.91,10.88-0.02.035A2.983,2.983,0,0,1,1498,520Zm-2.33-.73-14.05-11.051-0.01.008A0.991,0.991,0,0,0,1481,508a1,1,0,0,0-1,1v18a1,1,0,0,0,1,1,0.983,0.983,0,0,0,.82-0.456l0.02,0.018L1485,522l5.12,10.674A2,2,0,0,0,1494,532a1.968,1.968,0,0,0-.17-0.8l0.01-.008L1488.78,521H1495a1,1,0,0,0,1-1A0.986,0.986,0,0,0,1495.67,519.27ZM1451,531h9a1,1,0,0,1,0,2h-9A1,1,0,0,1,1451,531Zm19-4h-19a1,1,0,0,1,0-2h19A1,1,0,0,1,1470,527Zm0-6h-19a1,1,0,0,1,0-2h19A1,1,0,0,1,1470,521Zm0-12h-19a1,1,0,0,1,0-2h19A1,1,0,0,1,1470,509Zm0,6h-19a1,1,0,0,1,0-2h19A1,1,0,0,1,1470,515Zm16-18a2,2,0,0,0-2-2h-6.1a5,5,0,0,1-4.9,4h-20a5,5,0,0,1-4.9-4H1444a2,2,0,0,0-2,2v44a2,2,0,0,0,2,2h40a2,2,0,0,0,2-2v-4.25l2,1.5V541a4,4,0,0,1-4,4h-40a4,4,0,0,1-4-4V497a4,4,0,0,1,4-4h4.1a5,5,0,0,1,4.9-4h20a5,5,0,0,1,4.9,4h6.1a4,4,0,0,1,4,4v10l-2-2v-8Zm-13-6h-20a3,3,0,0,0,0,6h20A3,3,0,0,0,1473,491Z" transform="translate(-1440 -489)"/>
</svg>
