<svg id="Skype_mask.svg" xmlns="http://www.w3.org/2000/svg" width="20" height="20" viewBox="0 0 20 20">
  <defs>
    <style>
      .cls-1 {
        fill: #f7f9fa;
        fill-rule: evenodd;
      }
    </style>
  </defs>
  <path id="Ellipse_36_copy_2" data-name="Ellipse 36 copy 2" class="cls-1" d="M738,56h20V76H738V56Zm17,12.8a4.175,4.175,0,0,1-6.824,3.25c-0.06,0-.116.018-0.176,0.018A6.07,6.07,0,0,1,741.93,66c0-.061.016-0.117,0.017-0.177a4.176,4.176,0,0,1,5.877-5.876c0.06,0,.115-0.018.176-0.018A6.07,6.07,0,0,1,754.07,66c0,0.06-.016.116-0.018,0.176A4.155,4.155,0,0,1,755,68.8Zm-4.543-2.332a1.615,1.615,0,0,0-.5-0.589,3.032,3.032,0,0,0-.772-0.392,9.865,9.865,0,0,0-1.01-.294c-0.3-.076-0.509-0.135-0.637-0.174a1.927,1.927,0,0,1-.377-0.163,0.885,0.885,0,0,1-.29-0.246,0.547,0.547,0,0,1-.1-0.333,0.649,0.649,0,0,1,.307-0.537,1.359,1.359,0,0,1,.82-0.228,1.22,1.22,0,0,1,.794.208,1.719,1.719,0,0,1,.426.586,1.576,1.576,0,0,0,.263.39,0.493,0.493,0,0,0,.362.122,0.553,0.553,0,0,0,.436-0.2,0.678,0.678,0,0,0,.175-0.455,1.273,1.273,0,0,0-.138-0.557,1.726,1.726,0,0,0-.432-0.542,2.244,2.244,0,0,0-.741-0.412,3.226,3.226,0,0,0-1.055-.154,3.452,3.452,0,0,0-1.327.233,1.886,1.886,0,0,0-.868.671,1.727,1.727,0,0,0-.3,1,1.663,1.663,0,0,0,.285.989,1.958,1.958,0,0,0,.767.626,6.205,6.205,0,0,0,1.192.4,8.182,8.182,0,0,1,.844.233,1.245,1.245,0,0,1,.508.313,0.722,0.722,0,0,1,.192.525,0.824,0.824,0,0,1-.36.684,1.523,1.523,0,0,1-.95.278,1.455,1.455,0,0,1-.686-0.138,1.074,1.074,0,0,1-.4-0.348,2.679,2.679,0,0,1-.269-0.531,1.1,1.1,0,0,0-.255-0.417,0.523,0.523,0,0,0-.371-0.144,0.592,0.592,0,0,0-.445.183,0.626,0.626,0,0,0-.175.442,1.681,1.681,0,0,0,.286.892,2.17,2.17,0,0,0,.736.73A3.118,3.118,0,0,0,748,69.5a3.332,3.332,0,0,0,1.414-.278,2.075,2.075,0,0,0,.91-0.769,2.04,2.04,0,0,0,.311-1.111A1.923,1.923,0,0,0,750.457,66.471Z" transform="translate(-738 -56)"/>
</svg>
