<svg id="Social_mobile_menu.svg" xmlns="http://www.w3.org/2000/svg" width="114.03" height="14" viewBox="0 0 114.03 14">
  <defs>
    <style>
      .cls-1 {
        fill: #333;
        fill-rule: evenodd;
      }
    </style>
  </defs>
  <path id="Ellipse_60_copy" data-name="Ellipse 60 copy" class="cls-1" d="M1190,5125h-2v2h-2v-2h-2v-2h2v-2h2v2h2v2Zm-12.5,4a5.5,5.5,0,1,1,4.43-8.74l-1.7,1.07a3.489,3.489,0,0,0-6.23,2.17,3.492,3.492,0,0,0,6.65,1.5H1178v-2h5v2h-0.23A5.5,5.5,0,0,1,1177.5,5129Z" transform="translate(-1091 -5117)"/>
  <path id="mailru_copy_15" data-name="mailru copy 15" class="cls-1" d="M1200.75,5124.43a2.387,2.387,0,0,0-2.43-2.41h-0.05a2.384,2.384,0,0,0-2.31,2.62,2.317,2.317,0,0,0,2.31,2.53,2.465,2.465,0,0,0,2.49-2.43Zm-2.47-3.75a3.658,3.658,0,0,1,2.62,1.18h0a0.552,0.552,0,0,1,.53-0.6h0.07a0.6,0.6,0,0,1,.59.62v5.37a0.336,0.336,0,0,0,.56.31c0.82-.89,1.81-4.55-0.52-6.68a5.116,5.116,0,0,0-8.28,5.73,4.965,4.965,0,0,0,6.19,2.68c0.95-.4,1.4.95,0.4,1.4a6.49,6.49,0,0,1-7.64-2.94,6.58,6.58,0,0,1,10.59-7.66c2.23,2.43,2.1,6.99-.07,8.76a1.512,1.512,0,0,1-2.44-1.15l-0.01-.39a3.526,3.526,0,0,1-2.59,1.13,3.885,3.885,0,0,1,0-7.76h0" transform="translate(-1091 -5117)"/>
  <path id="Твиттер_copy_22" data-name="Твиттер copy 22" class="cls-1" d="M1122.29,5121.78s0.2-2.74,2.18-2.76c1.61-.02,1.91.69,1.91,0.69a3.751,3.751,0,0,0,1.32-.71,2.026,2.026,0,0,1-.54,1.23,1.382,1.382,0,0,0,.84-0.29,1.618,1.618,0,0,1-.88,1.02,9.1,9.1,0,0,1-1.35,4.84c-1.29,2.11-4.06,2.17-5.49,2.19a7.744,7.744,0,0,1-3.27-.93,6.9,6.9,0,0,0,3.15-.66,15.8,15.8,0,0,1-2.16-1.72,2.188,2.188,0,0,0,.78-0.08,11.187,11.187,0,0,1-1.77-2.37,2.891,2.891,0,0,0,.81.04s-1.26-1.99-.66-3.28A8.115,8.115,0,0,0,1122.29,5121.78Z" transform="translate(-1091 -5117)"/>
  <path id="Shape_52_copy" data-name="Shape 52 copy" class="cls-1" d="M1157,5130h-7a4,4,0,0,1-4-4v-4a4,4,0,0,1,4-4h7a4,4,0,0,1,4,4v4A4,4,0,0,1,1157,5130Zm2-8a2,2,0,0,0-2-2h-7a1.993,1.993,0,0,0-2,2v4a2,2,0,0,0,2,2h7a2.006,2.006,0,0,0,2-2v-4Zm-7,0,4,2-4,2v-4Z" transform="translate(-1091 -5117)"/>
  <path id="facebook_copy_22" data-name="facebook copy 22" class="cls-1" d="M1096.99,5119.98l0.31-1.98a16.024,16.024,0,0,0-2.4.02,2.266,2.266,0,0,0-1.42.78,2.443,2.443,0,0,0-.48,1.6v2.59l-2-.01-0.01,2.01H1093v6h2.01v-6l2.38-.01,0.31-2h-2.69v-2.51a0.566,0.566,0,0,1,.67-0.49h1.31Z" transform="translate(-1091 -5117)"/>
  <path id="Вконтакте_copy_27" data-name="Вконтакте copy 27" class="cls-1" d="M1108.99,5119.77v3.26a0.53,0.53,0,0,0,.43.35c0.3,0,.98-1.81,1.28-2.41a1.95,1.95,0,0,1,.74-0.83,0.594,0.594,0,0,1,.36-0.15h2.88a0.465,0.465,0,0,1,.3.73,27.84,27.84,0,0,1-2.25,2.73,1.381,1.381,0,0,0-.24.55,1.2,1.2,0,0,0,.31.63c0.2,0.23,1.82,2,1.97,2.15a1.265,1.265,0,0,1,.28.58,0.763,0.763,0,0,1-.81.61c-0.62,0-2.16.01-2.34,0.01a2.807,2.807,0,0,1-.95-0.57c-0.23-.2-1.15-1.15-1.28-1.28a2.047,2.047,0,0,0,.03-0.36,0.821,0.821,0,0,0-.71.8,3.954,3.954,0,0,1-.24,1.14,0.992,0.992,0,0,1-.73.28,5.01,5.01,0,0,1-2.92-.73,14.486,14.486,0,0,1-4.2-5.01c-0.77-1.54-.95-1.78-0.9-1.96s0.05-.3.23-0.3h2.6a0.9,0.9,0,0,1,.36.32c0.07,0.11.64,1.06,0.82,1.36s1.04,1.71,1.5,1.71a0.6,0.6,0,0,0,.48-0.7v-2.19a1.964,1.964,0,0,0-.98-1,1.263,1.263,0,0,1,.93-0.49,23.791,23.791,0,0,1,2.43.02A0.781,0.781,0,0,1,1108.99,5119.77Z" transform="translate(-1091 -5117)"/>
  <path id="Одноклассники_copy_27" data-name="Одноклассники copy 27" class="cls-1" d="M1166.5,5117a3.5,3.5,0,1,1-3.52,3.49A3.5,3.5,0,0,1,1166.5,5117Zm0.01,1.95a1.52,1.52,0,1,1-1.54,1.52A1.528,1.528,0,0,1,1166.51,5118.95Zm-0.01,6.06a5.6,5.6,0,0,0,1.96-.35,5.717,5.717,0,0,1,1.12-.57c0.22,0.01.58,0.37,0.52,1.32-0.04.54-1.02,0.76-1.36,0.97a2.445,2.445,0,0,1-.73.24s0.85,0.91,1.06,1.13a2.651,2.651,0,0,1,.95,1.28,1.324,1.324,0,0,1-1,1,4.349,4.349,0,0,1-1.4-1.11c-0.58-.56-1.12-1.07-1.12-1.07s-0.54.48-1.11,1.04a4.512,4.512,0,0,1-1.37,1.14,1.435,1.435,0,0,1-1.06-1.15,5.992,5.992,0,0,1,1.24-1.49,9.027,9.027,0,0,1,.8-0.76,1.926,1.926,0,0,1-.64-0.21c-0.48-.26-1.51-0.54-1.48-1.04s0.15-1.3.61-1.3a5.7,5.7,0,0,1,1.12.54A4.3,4.3,0,0,0,1166.5,5125.01Z" transform="translate(-1091 -5117)"/>
  <path id="Rounded_Rectangle_1_copy" data-name="Rounded Rectangle 1 copy" class="cls-1" d="M1134,5117h6a4,4,0,0,1,4,4v6a4,4,0,0,1-4,4h-6a4,4,0,0,1-4-4v-6A4,4,0,0,1,1134,5117Zm0,2h6a2,2,0,0,1,2,2v6a2.006,2.006,0,0,1-2,2h-6a2.006,2.006,0,0,1-2-2v-6A2,2,0,0,1,1134,5119Zm3,2a3,3,0,1,1-3,3A3,3,0,0,1,1137,5121Zm-1,2h2v2h-2v-2Z" transform="translate(-1091 -5117)"/>
</svg>
