<svg id="Social_Share.svg" xmlns="http://www.w3.org/2000/svg" width="40" height="122" viewBox="0 0 40 122">
  <defs>
    <style>
      .cls-1 {
        fill: #333;
      }

      .cls-1, .cls-2 {
        fill-rule: evenodd;
      }

      .cls-2 {
        fill: #fff;
      }
    </style>
  </defs>
  <path id="Shape_51_copy_13" data-name="Shape 51 copy 13" class="cls-1" d="M1335,4584a6.959,6.959,0,0,1-3.72-1.09L1328,4584l1.09-3.28A6.987,6.987,0,1,1,1335,4584Zm1.41-6.02c0.43,0.11.85,0.27,1.29,0.34a0.354,0.354,0,0,1,.3.41l-0.01.25a0.513,0.513,0,0,1-.2.46,2.436,2.436,0,0,1-.73.51,2.975,2.975,0,0,1-2.27-.68,6.833,6.833,0,0,1-1.12-.93,6.7,6.7,0,0,1-.92-1.12,2.966,2.966,0,0,1-.69-2.28,2.635,2.635,0,0,1,.51-0.73,0.558,0.558,0,0,1,.46-0.21h0.25a0.356,0.356,0,0,1,.4.31c0.13,0.5.22,0.87,0.35,1.28,0.06,0.18,0,.22-0.14.32-0.09.07-.16,0.11-0.23,0.17a0.3,0.3,0,0,0-.14.43,4.661,4.661,0,0,0,.83,1.15,4.847,4.847,0,0,0,1.14.83,0.317,0.317,0,0,0,.44-0.14c0.05-.07.1-0.14,0.16-0.23a0.236,0.236,0,0,1,.32-0.14h0Z" transform="translate(-1326 -4462)"/>
  <path id="Ellipse_226_copy" data-name="Ellipse 226 copy" class="cls-1" d="M1332.15,4554.85c0.34,0.55,1.11,1.89,1.22,2.14a0.735,0.735,0,0,1-.23.98,4.932,4.932,0,0,0-.83.64c-0.13.24-.26,1.2,1.17,2.61s2.56,1.7,2.85,1.38,0.48-.66.67-0.85a0.783,0.783,0,0,1,1.06-.09,22.029,22.029,0,0,1,2.27,1.39c0.45,0.34.79,0.6,0.62,1.05a3.122,3.122,0,0,1-.73,1.21,2.348,2.348,0,0,1-2.11.63,9.543,9.543,0,0,1-3-1.33,17.906,17.906,0,0,1-2.69-2.34,18.528,18.528,0,0,1-2.06-2.39,11.312,11.312,0,0,1-1.31-3.28,1.919,1.919,0,0,1,.4-1.78,2.84,2.84,0,0,1,1.36-.78C1331.17,4553.95,1331.58,4553.95,1332.15,4554.85ZM1335,4555v-1a6,6,0,0,1,6,6h-1A5,5,0,0,0,1335,4555Zm4,5h-1a3,3,0,0,0-3-3v-1A4,4,0,0,1,1339,4560Z" transform="translate(-1326 -4462)"/>
  <path id="mailru_copy_15" data-name="mailru copy 15" class="cls-1" d="M1336.75,4543.43a2.387,2.387,0,0,0-2.43-2.41h-0.05a2.384,2.384,0,0,0-2.31,2.62,2.317,2.317,0,0,0,2.31,2.53,2.465,2.465,0,0,0,2.49-2.43Zm-2.47-3.75a3.658,3.658,0,0,1,2.62,1.18h0a0.552,0.552,0,0,1,.53-0.6h0.07a0.6,0.6,0,0,1,.59.62v5.37a0.336,0.336,0,0,0,.56.31c0.82-.89,1.81-4.55-0.52-6.68a5.116,5.116,0,0,0-8.28,5.73,4.965,4.965,0,0,0,6.19,2.68c0.95-.4,1.4.95,0.4,1.4a6.49,6.49,0,0,1-7.64-2.94,6.58,6.58,0,0,1,10.59-7.66c2.23,2.43,2.1,6.99-.07,8.76a1.512,1.512,0,0,1-2.44-1.15l-0.01-.39a3.526,3.526,0,0,1-2.59,1.13,3.885,3.885,0,0,1,0-7.76h0" transform="translate(-1326 -4462)"/>
  <path id="Ellipse_60_copy" data-name="Ellipse 60 copy" class="cls-1" d="M1344,4529h-2v2h-2v-2h-2v-2h2v-2h2v2h2v2Zm-12.5,4a5.5,5.5,0,1,1,4.43-8.74l-1.7,1.07a3.489,3.489,0,0,0-6.23,2.17,3.492,3.492,0,0,0,6.65,1.5H1332v-2h5v2h-0.23A5.5,5.5,0,0,1,1331.5,4533Z" transform="translate(-1326 -4462)"/>
  <path id="facebook_copy_22" data-name="facebook copy 22" class="cls-1" d="M1337.99,4506.98l0.31-1.98a16.024,16.024,0,0,0-2.4.02,2.266,2.266,0,0,0-1.42.78,2.443,2.443,0,0,0-.48,1.6v2.59l-2-.01-0.01,2,2.01,0.01v6h2.01v-6.01h2.38l0.31-2h-2.69v-2.51a0.566,0.566,0,0,1,.67-0.49h1.31Z" transform="translate(-1326 -4462)"/>
  <path id="Твиттер_copy_23" data-name="Твиттер copy 23" class="cls-1" d="M1335.29,4494.78s0.2-2.74,2.18-2.76c1.61-.02,1.91.68,1.91,0.68a3.687,3.687,0,0,0,1.32-.7,2.026,2.026,0,0,1-.54,1.23,1.382,1.382,0,0,0,.84-0.29,1.618,1.618,0,0,1-.88,1.02,9.1,9.1,0,0,1-1.35,4.84c-1.29,2.11-4.06,2.17-5.49,2.19a7.744,7.744,0,0,1-3.27-.93,6.9,6.9,0,0,0,3.15-.66,15.8,15.8,0,0,1-2.16-1.72,2.188,2.188,0,0,0,.78-0.08,11.187,11.187,0,0,1-1.77-2.37,2.891,2.891,0,0,0,.81.04s-1.26-1.99-.66-3.28A8.115,8.115,0,0,0,1335.29,4494.78Z" transform="translate(-1326 -4462)"/>
  <path id="Одноклассники_copy_27" data-name="Одноклассники copy 27" class="cls-1" d="M1335.5,4475a3.5,3.5,0,1,1-3.52,3.49A3.5,3.5,0,0,1,1335.5,4475Zm0.01,1.95a1.52,1.52,0,1,1-1.54,1.52A1.528,1.528,0,0,1,1335.51,4476.95Zm-0.01,6.06a5.833,5.833,0,0,0,1.96-.35,5.717,5.717,0,0,1,1.12-.57c0.22,0.01.58,0.37,0.52,1.32-0.04.54-1.02,0.76-1.36,0.97a2.445,2.445,0,0,1-.73.24s0.85,0.91,1.06,1.13a2.651,2.651,0,0,1,.95,1.28,1.324,1.324,0,0,1-1,1,4.28,4.28,0,0,1-1.4-1.12c-0.58-.55-1.12-1.06-1.12-1.06s-0.54.48-1.11,1.04a4.512,4.512,0,0,1-1.37,1.14,1.434,1.434,0,0,1-1.06-1.16,6.2,6.2,0,0,1,1.24-1.48,9.027,9.027,0,0,1,.8-0.76,1.926,1.926,0,0,1-.64-0.21c-0.48-.26-1.51-0.54-1.48-1.04s0.15-1.3.61-1.3a5.7,5.7,0,0,1,1.12.54A4.3,4.3,0,0,0,1335.5,4483.01Z" transform="translate(-1326 -4462)"/>
  <path id="Вконтакте_copy_27" data-name="Вконтакте copy 27" class="cls-1" d="M1335.99,4462.77v3.26a0.53,0.53,0,0,0,.43.35c0.3,0,.98-1.81,1.28-2.41a1.95,1.95,0,0,1,.74-0.83,0.594,0.594,0,0,1,.36-0.15h2.88a0.465,0.465,0,0,1,.3.73,27.84,27.84,0,0,1-2.25,2.73,1.381,1.381,0,0,0-.24.55,1.2,1.2,0,0,0,.31.63c0.2,0.23,1.82,2,1.97,2.15a1.222,1.222,0,0,1,.28.58,0.771,0.771,0,0,1-.81.61h-2.34a2.761,2.761,0,0,1-.95-0.56c-0.23-.2-1.15-1.15-1.28-1.28a2.047,2.047,0,0,0,.03-0.36,0.821,0.821,0,0,0-.71.8,3.954,3.954,0,0,1-.24,1.14,0.992,0.992,0,0,1-.73.28,5.093,5.093,0,0,1-2.92-.73,14.486,14.486,0,0,1-4.2-5.01c-0.77-1.54-.95-1.78-0.9-1.96s0.05-.3.23-0.3h2.6a0.818,0.818,0,0,1,.35.32c0.08,0.11.65,1.06,0.83,1.36s1.04,1.71,1.5,1.71a0.6,0.6,0,0,0,.48-0.7v-2.19a1.964,1.964,0,0,0-.98-1,1.263,1.263,0,0,1,.93-0.49,23.791,23.791,0,0,1,2.43.02A0.781,0.781,0,0,1,1335.99,4462.77Z" transform="translate(-1326 -4462)"/>
  <path id="Shape_51_copy_14" data-name="Shape 51 copy 14" class="cls-2" d="M1357,4584a6.959,6.959,0,0,1-3.72-1.09L1350,4584l1.09-3.28A6.987,6.987,0,1,1,1357,4584Zm1.41-6.02c0.43,0.11.85,0.27,1.29,0.34a0.354,0.354,0,0,1,.3.41l-0.01.25a0.513,0.513,0,0,1-.2.46,2.436,2.436,0,0,1-.73.51,2.975,2.975,0,0,1-2.27-.68,6.833,6.833,0,0,1-1.12-.93,6.7,6.7,0,0,1-.92-1.12,2.966,2.966,0,0,1-.69-2.28,2.635,2.635,0,0,1,.51-0.73,0.558,0.558,0,0,1,.46-0.21h0.25a0.356,0.356,0,0,1,.4.31c0.13,0.5.22,0.87,0.35,1.28,0.06,0.18,0,.22-0.14.32-0.09.07-.16,0.11-0.23,0.17a0.3,0.3,0,0,0-.14.43,4.661,4.661,0,0,0,.83,1.15,4.847,4.847,0,0,0,1.14.83,0.317,0.317,0,0,0,.44-0.14c0.05-.07.1-0.14,0.16-0.23a0.236,0.236,0,0,1,.32-0.14h0Z" transform="translate(-1326 -4462)"/>
  <path id="Ellipse_226_copy_2" data-name="Ellipse 226 copy 2" class="cls-2" d="M1354.15,4554.85c0.34,0.55,1.11,1.89,1.22,2.14a0.735,0.735,0,0,1-.23.98,4.932,4.932,0,0,0-.83.64c-0.13.24-.26,1.2,1.17,2.61s2.56,1.7,2.85,1.38,0.48-.66.67-0.85a0.783,0.783,0,0,1,1.06-.09,22.029,22.029,0,0,1,2.27,1.39c0.45,0.34.79,0.6,0.62,1.05a3.122,3.122,0,0,1-.73,1.21,2.348,2.348,0,0,1-2.11.63,9.543,9.543,0,0,1-3-1.33,17.906,17.906,0,0,1-2.69-2.34,18.528,18.528,0,0,1-2.06-2.39,11.312,11.312,0,0,1-1.31-3.28,1.919,1.919,0,0,1,.4-1.78,2.84,2.84,0,0,1,1.36-.78C1353.17,4553.95,1353.58,4553.95,1354.15,4554.85ZM1357,4555v-1a6,6,0,0,1,6,6h-1A5,5,0,0,0,1357,4555Zm4,5h-1a3,3,0,0,0-3-3v-1A4,4,0,0,1,1361,4560Z" transform="translate(-1326 -4462)"/>
  <path id="mailru_copy_16" data-name="mailru copy 16" class="cls-2" d="M1358.75,4543.43a2.387,2.387,0,0,0-2.43-2.41h-0.05a2.384,2.384,0,0,0-2.31,2.62,2.317,2.317,0,0,0,2.31,2.53,2.465,2.465,0,0,0,2.49-2.43Zm-2.47-3.75a3.658,3.658,0,0,1,2.62,1.18h0a0.552,0.552,0,0,1,.53-0.6h0.07a0.6,0.6,0,0,1,.59.62v5.37a0.336,0.336,0,0,0,.56.31c0.82-.89,1.81-4.55-0.52-6.68a5.116,5.116,0,0,0-8.28,5.73,4.965,4.965,0,0,0,6.19,2.68c0.95-.4,1.4.95,0.4,1.4a6.49,6.49,0,0,1-7.64-2.94,6.58,6.58,0,0,1,10.59-7.66c2.23,2.43,2.1,6.99-.07,8.76a1.512,1.512,0,0,1-2.44-1.15l-0.01-.39a3.526,3.526,0,0,1-2.59,1.13,3.885,3.885,0,0,1,0-7.76h0" transform="translate(-1326 -4462)"/>
  <path id="Ellipse_60_copy_2" data-name="Ellipse 60 copy 2" class="cls-2" d="M1366,4529h-2v2h-2v-2h-2v-2h2v-2h2v2h2v2Zm-12.5,4a5.5,5.5,0,1,1,4.43-8.74l-1.7,1.07a3.489,3.489,0,0,0-6.23,2.17,3.492,3.492,0,0,0,6.65,1.5H1354v-2h5v2h-0.23A5.5,5.5,0,0,1,1353.5,4533Z" transform="translate(-1326 -4462)"/>
  <path id="facebook_copy_23" data-name="facebook copy 23" class="cls-2" d="M1359.99,4506.98l0.31-1.98a16.024,16.024,0,0,0-2.4.02,2.266,2.266,0,0,0-1.42.78,2.443,2.443,0,0,0-.48,1.6v2.59l-2-.01-0.01,2,2.01,0.01v6h2.01v-6.01h2.38l0.31-2h-2.69v-2.51a0.566,0.566,0,0,1,.67-0.49h1.31Z" transform="translate(-1326 -4462)"/>
  <path id="Твиттер_copy_24" data-name="Твиттер copy 24" class="cls-2" d="M1357.29,4494.78s0.2-2.74,2.18-2.76c1.61-.02,1.91.68,1.91,0.68a3.687,3.687,0,0,0,1.32-.7,2.026,2.026,0,0,1-.54,1.23,1.382,1.382,0,0,0,.84-0.29,1.618,1.618,0,0,1-.88,1.02,9.1,9.1,0,0,1-1.35,4.84c-1.29,2.11-4.06,2.17-5.49,2.19a7.744,7.744,0,0,1-3.27-.93,6.9,6.9,0,0,0,3.15-.66,15.8,15.8,0,0,1-2.16-1.72,2.188,2.188,0,0,0,.78-0.08,11.187,11.187,0,0,1-1.77-2.37,2.891,2.891,0,0,0,.81.04s-1.26-1.99-.66-3.28A8.115,8.115,0,0,0,1357.29,4494.78Z" transform="translate(-1326 -4462)"/>
  <path id="Одноклассники_copy_28" data-name="Одноклассники copy 28" class="cls-2" d="M1357.5,4475a3.5,3.5,0,1,1-3.52,3.49A3.5,3.5,0,0,1,1357.5,4475Zm0.01,1.95a1.52,1.52,0,1,1-1.54,1.52A1.528,1.528,0,0,1,1357.51,4476.95Zm-0.01,6.06a5.833,5.833,0,0,0,1.96-.35,5.717,5.717,0,0,1,1.12-.57c0.22,0.01.58,0.37,0.52,1.32-0.04.54-1.02,0.76-1.36,0.97a2.445,2.445,0,0,1-.73.24s0.85,0.91,1.06,1.13a2.651,2.651,0,0,1,.95,1.28,1.324,1.324,0,0,1-1,1,4.28,4.28,0,0,1-1.4-1.12c-0.58-.55-1.12-1.06-1.12-1.06s-0.54.48-1.11,1.04a4.512,4.512,0,0,1-1.37,1.14,1.434,1.434,0,0,1-1.06-1.16,6.2,6.2,0,0,1,1.24-1.48,9.027,9.027,0,0,1,.8-0.76,1.926,1.926,0,0,1-.64-0.21c-0.48-.26-1.51-0.54-1.48-1.04s0.15-1.3.61-1.3a5.7,5.7,0,0,1,1.12.54A4.3,4.3,0,0,0,1357.5,4483.01Z" transform="translate(-1326 -4462)"/>
  <path id="Вконтакте_copy_28" data-name="Вконтакте copy 28" class="cls-2" d="M1357.99,4462.77v3.26a0.53,0.53,0,0,0,.43.35c0.3,0,.98-1.81,1.28-2.41a1.95,1.95,0,0,1,.74-0.83,0.594,0.594,0,0,1,.36-0.15h2.88a0.465,0.465,0,0,1,.3.73,27.84,27.84,0,0,1-2.25,2.73,1.381,1.381,0,0,0-.24.55,1.2,1.2,0,0,0,.31.63c0.2,0.23,1.82,2,1.97,2.15a1.222,1.222,0,0,1,.28.58,0.771,0.771,0,0,1-.81.61h-2.34a2.761,2.761,0,0,1-.95-0.56c-0.23-.2-1.15-1.15-1.28-1.28a2.047,2.047,0,0,0,.03-0.36,0.821,0.821,0,0,0-.71.8,3.954,3.954,0,0,1-.24,1.14,0.992,0.992,0,0,1-.73.28,5.093,5.093,0,0,1-2.92-.73,14.486,14.486,0,0,1-4.2-5.01c-0.77-1.54-.95-1.78-0.9-1.96s0.05-.3.23-0.3h2.6a0.818,0.818,0,0,1,.35.32c0.08,0.11.65,1.06,0.83,1.36s1.04,1.71,1.5,1.71a0.6,0.6,0,0,0,.48-0.7v-2.19a1.964,1.964,0,0,0-.98-1,1.263,1.263,0,0,1,.93-0.49,23.791,23.791,0,0,1,2.43.02A0.781,0.781,0,0,1,1357.99,4462.77Z" transform="translate(-1326 -4462)"/>
</svg>
