<svg id="Spinner_black.svg" xmlns="http://www.w3.org/2000/svg" width="14" height="14" viewBox="0 0 14 14">
  <defs>
    <style>
      .cls-1 {
        fill: #333;
        fill-rule: evenodd;
      }
    </style>
  </defs>
  <path id="Rounded_Rectangle_689_copy" data-name="Rounded Rectangle 689 copy" class="cls-1" d="M1174,753h-3a1,1,0,0,1,0-2h0.97a4.963,4.963,0,0,0-8.54,1h-2.09a6.95,6.95,0,0,1,6.66-5,6.861,6.861,0,0,1,5,2.17V749a1,1,0,0,1,2,0v3A1,1,0,0,1,1174,753Zm-9,2a1,1,0,0,1,0,2h-0.98a4.972,4.972,0,0,0,8.55-1h2.09a6.95,6.95,0,0,1-6.66,5,6.861,6.861,0,0,1-5-2.17V759a1,1,0,0,1-2,0v-3a1,1,0,0,1,1-1h3Z" transform="translate(-1161 -747)"/>
</svg>
