<svg id="Subscribe_plane.svg" xmlns="http://www.w3.org/2000/svg" width="75.03" height="56.031" viewBox="0 0 75.03 56.031">
  <defs>
    <style>
      .cls-1 {
        fill: #333;
        fill-rule: evenodd;
      }
    </style>
  </defs>
  <path id="Rounded_Rectangle_666" data-name="Rounded Rectangle 666" class="cls-1" d="M1512.94,400.637a0.455,0.455,0,0,1,.02.114,0.723,0.723,0,0,1,.03.253,1.067,1.067,0,0,1-.03.178,1,1,0,0,1-.03.171l-19.02,46.017a0.978,0.978,0,0,1-.71.575,0.92,0.92,0,0,1-.21.042,1,1,0,0,1-.39-0.077c-0.02-.01-0.04-0.032-0.06-0.045l-15.19-6.174-12.57,13.928a0.014,0.014,0,0,1-.01.015,0.235,0.235,0,0,1-.05.057,1.069,1.069,0,0,1-.25.2l-0.03.013a1.072,1.072,0,0,1-.23.1,1,1,0,0,1-.88-0.24s0,0-.01,0v-0.009a0.976,0.976,0,0,1-.21-0.27c-0.01-.031-0.03-0.06-0.04-0.092s-0.04-.075-0.06-0.12l-4.83-21.5-19.75-7.918a0.934,0.934,0,0,1-.37-1.268s0,0,.01,0a0.9,0.9,0,0,1,.47-0.5,0.287,0.287,0,0,1,.07-0.041,0.03,0.03,0,0,1,.02-0.013l71.54-23.526a0.974,0.974,0,0,1,.1-0.033l1.44-.474a0.97,0.97,0,0,1,1.14.465,0.92,0.92,0,0,1,.08.152C1512.93,400.624,1512.94,400.629,1512.94,400.637Zm-20.49,45.036,16.34-39.561-36.93,31.195Zm-17.08-4.783-4.78-1.944-4.04,11.725Zm-11.18,10.5,4.84-14.047c0.02-.049.05-0.085,0.07-0.13a0.974,0.974,0,0,1,.28-0.424l38.67-32.664-47.89,29.358Zm-5.27-19.468,43.83-26.864-60.9,20.023Z" transform="translate(-1437.97 -399.969)"/>
</svg>
