<svg id="Subscribe_black.svg" xmlns="http://www.w3.org/2000/svg" width="40" height="28" viewBox="0 0 40 28">
  <defs>
    <style>
      .cls-1 {
        fill: #333;
        fill-rule: evenodd;
      }
    </style>
  </defs>
  <path id="Rounded_Rectangle_667_copy_3" data-name="Rounded Rectangle 667 copy 3" class="cls-1" d="M567.961,5760.18a1.022,1.022,0,0,1-.119.37,0.041,0.041,0,0,0-.007.02l-9.873,21.68a0.85,0.85,0,0,1-.024.12,0.951,0.951,0,0,1-.3.38,1,1,0,0,1-.158.1c-0.039.02-.072,0.05-0.112,0.07a1,1,0,0,1-.847-0.01c-0.041-.02-0.067-0.06-0.1-0.08l-7.292-2.86-6.376,6.7a0.99,0.99,0,0,1-.734.33,0.976,0.976,0,0,1-.17-0.03,1.547,1.547,0,0,1-.214-0.05,0.432,0.432,0,0,1-.093-0.06,0.8,0.8,0,0,1-.232-0.15,0.992,0.992,0,0,1-.29-0.75v-9.16l-12.408-4.85H528.6a1,1,0,0,1-.585-0.65,0.957,0.957,0,0,1,.058-0.64c0-.01,0-0.01,0-0.01s0-.01,0-0.01a1.16,1.16,0,0,1,.189-0.28c0.017-.02.031-0.04,0.05-0.06a1.158,1.158,0,0,1,.188-0.12,1.045,1.045,0,0,1,.169-0.08,0.073,0.073,0,0,1,.04-0.02l37.8-10.94a0.968,0.968,0,0,1,1.472.96C567.985,5760.13,567.965,5760.15,567.961,5760.18Zm-24.942,23.31,4.1-4.3-4.1-1.6v5.9Zm-10.912-12.32,9.205,3.6,19.017-11.76Zm11.531,4.51,12.836,5.02,8.216-18.04Z" transform="translate(-528 -5759)"/>
</svg>
