<svg id="Mailru_white_mask.svg" xmlns="http://www.w3.org/2000/svg" width="20" height="20" viewBox="0 0 20 20">
  <defs>
    <style>
      .cls-1 {
        fill: #fff;
        fill-rule: evenodd;
      }
    </style>
  </defs>
  <path id="mailru_copy_14" data-name="mailru copy 14" class="cls-1" d="M532,56h20V76H532V56Zm12.753,10.435a2.386,2.386,0,0,0-2.429-2.407h-0.049a2.375,2.375,0,0,0-2.311,2.613,2.318,2.318,0,0,0,2.3,2.537,2.47,2.47,0,0,0,2.487-2.439Zm-2.471-3.752a3.647,3.647,0,0,1,2.613,1.178v0a0.556,0.556,0,0,1,.531-0.606H545.5a0.607,0.607,0,0,1,.581.628l0,5.367a0.334,0.334,0,0,0,.558.307c0.824-.886,1.809-4.552-0.513-6.677a5.116,5.116,0,0,0-8.284,5.725,4.964,4.964,0,0,0,6.187,2.686c0.959-.4,1.4.95,0.406,1.393a6.49,6.49,0,0,1-7.642-2.939,6.581,6.581,0,0,1,10.594-7.657c2.227,2.432,2.1,6.987-.075,8.758a1.508,1.508,0,0,1-2.436-1.151l-0.01-.383a3.576,3.576,0,0,1-2.591,1.126,3.885,3.885,0,0,1,0-7.759h0" transform="translate(-532 -56)"/>
</svg>
