<svg id="Twitter_white_mask.svg" xmlns="http://www.w3.org/2000/svg" width="20" height="20" viewBox="0 0 20 20">
  <defs>
    <style>
      .cls-1 {
        fill: #fff;
        fill-rule: evenodd;
      }
    </style>
  </defs>
  <path id="Твиттер_copy_21" data-name="Твиттер copy 21" class="cls-1" d="M487,56h20V76H487V56Zm10.294,8.784s0.2-2.739,2.175-2.763c1.611-.02,1.916.686,1.916,0.686A3.665,3.665,0,0,0,502.7,62a2.047,2.047,0,0,1-.539,1.234A1.365,1.365,0,0,0,503,62.942a1.6,1.6,0,0,1-.878,1.017,9.09,9.09,0,0,1-1.354,4.842c-1.29,2.11-4.055,2.171-5.49,2.188a7.852,7.852,0,0,1-3.272-.922,6.933,6.933,0,0,0,3.152-.663A15.348,15.348,0,0,1,493,67.68a2.219,2.219,0,0,0,.781-0.076,11.233,11.233,0,0,1-1.776-2.371,2.926,2.926,0,0,0,.818.041s-1.267-1.993-.668-3.285A8.159,8.159,0,0,0,497.294,64.784Z" transform="translate(-487 -56)"/>
</svg>
