<svg id="Vk_white_mask.svg" xmlns="http://www.w3.org/2000/svg" width="20" height="20" viewBox="0 0 20 20">
  <defs>
    <style>
      .cls-1 {
        fill: #fff;
        fill-rule: evenodd;
      }
    </style>
  </defs>
  <path id="Вконтакте_copy_26" data-name="Вконтакте copy 26" class="cls-1" d="M353,56h20V76H353V56Zm10.994,6.771v3.257a0.521,0.521,0,0,0,.426.351c0.3,0,.978-1.8,1.279-2.406a1.933,1.933,0,0,1,.738-0.826,0.61,0.61,0,0,1,.368-0.155h2.878a0.464,0.464,0,0,1,.3.727,29.171,29.171,0,0,1-2.255,2.736,1.316,1.316,0,0,0-.237.55,1.2,1.2,0,0,0,.312.627c0.2,0.226,1.816,2,1.967,2.155a1.2,1.2,0,0,1,.275.576,0.764,0.764,0,0,1-.8.614c-0.627,0-2.167,0-2.342,0a2.789,2.789,0,0,1-.953-0.565c-0.225-.2-1.152-1.152-1.278-1.277a2.525,2.525,0,0,0,.025-0.363,0.825,0.825,0,0,0-.7.8,4.1,4.1,0,0,1-.239,1.139,1.024,1.024,0,0,1-.737.275,5,5,0,0,1-2.913-.727,14.334,14.334,0,0,1-4.2-5.011c-0.774-1.543-.948-1.783-0.9-1.959s0.05-.3.226-0.3,2.389,0,2.606,0a0.85,0.85,0,0,1,.35.326c0.075,0.1.647,1.056,0.823,1.356s1.038,1.708,1.5,1.707a0.6,0.6,0,0,0,.474-0.7c0-.4,0-1.979,0-2.181a1.94,1.94,0,0,0-.978-1A1.262,1.262,0,0,1,360.937,62c0.6-.025,2.1-0.025,2.431.024A0.78,0.78,0,0,1,363.994,62.771Z" transform="translate(-353 -56)"/>
</svg>
