<svg xmlns="http://www.w3.org/2000/svg" viewBox="0 0 257.16 58.49"><defs><style>.cls-1{fill:#5ad2c8;}.cls-2{fill:#f296d2;}</style></defs><g id="Layer_2" data-name="Layer 2"><g id="Layer_1-2" data-name="Layer 1"><path class="cls-1" d="M78.85,15.69c0-.11-.07-.21-.1-.32s-.07-.27-.12-.4a4.25,4.25,0,0,0-.8-1.25,3.86,3.86,0,0,0-1.21-.84,3.57,3.57,0,0,0-1.5-.31,5.47,5.47,0,0,0-1.67.33,3.74,3.74,0,0,0-1.2.81,3.6,3.6,0,0,0-.8,1.21,3.72,3.72,0,0,0-.3,1.5V29.84a9.18,9.18,0,0,1-.65,3.43,8.36,8.36,0,0,1-1.81,2.78,8.46,8.46,0,0,1-6.14,2.54,8.33,8.33,0,0,1-3.39-.7A9.34,9.34,0,0,1,56.36,36a8.89,8.89,0,0,1-1.93-2.78,8.59,8.59,0,0,1-.76-3.42V16.42a3.57,3.57,0,0,0-.31-1.5,3.75,3.75,0,0,0-.86-1.21,4.13,4.13,0,0,0-1.26-.81,3.94,3.94,0,0,0-1.53-.3A3.83,3.83,0,0,0,47,13.71a3.85,3.85,0,0,0-.81,1.2,3.8,3.8,0,0,0-.29,1.51v13.4a15.88,15.88,0,0,0,1.31,6.44,16.94,16.94,0,0,0,3.57,5.26,16.57,16.57,0,0,0,5.29,3.55,16.14,16.14,0,0,0,6.46,1.3,15.76,15.76,0,0,0,6.41-1.3,17,17,0,0,0,2.35-1.26,4.68,4.68,0,0,0,.17.53,4,4,0,0,0,.86,1.22,3.77,3.77,0,0,0,1.25.82,3.89,3.89,0,0,0,1.52.3,3.79,3.79,0,0,0,1.5-.3,3.75,3.75,0,0,0,1.22-.82,3.91,3.91,0,0,0,.82-1.22,4,4,0,0,0,.29-1.51V16.42a3.71,3.71,0,0,0,0-.48C78.86,15.86,78.86,15.77,78.85,15.69Z"/><path class="cls-1" d="M112.17,14.29a4.15,4.15,0,0,0-1.28-.87,3.8,3.8,0,0,0-1.55-.32H87.41a3.91,3.91,0,0,0-2.8,1.17,3.76,3.76,0,0,0-.82,1.27,4.1,4.1,0,0,0-.3,1.57,3.59,3.59,0,0,0,.3,1.48,3.52,3.52,0,0,0,.82,1.19,3.89,3.89,0,0,0,1.24.8,4,4,0,0,0,1.56.3h7.22L94.54,42.7a4.11,4.11,0,0,0,.28,1.55,3.74,3.74,0,0,0,.79,1.26,3.46,3.46,0,0,0,1.19.85,3.89,3.89,0,0,0,1.52.29,4.35,4.35,0,0,0,1.58-.29,3.55,3.55,0,0,0,1.26-.85,4.21,4.21,0,0,0,.84-1.26,3.77,3.77,0,0,0,.31-1.55l.09-21.82h6.94a4.36,4.36,0,0,0,1.55-.28,4.1,4.1,0,0,0,1.28-.79,3.65,3.65,0,0,0,.88-1.18,3.56,3.56,0,0,0,.31-1.52,3.8,3.8,0,0,0-.31-1.55A4.13,4.13,0,0,0,112.17,14.29Z"/><path class="cls-1" d="M143.41,17.59A17.21,17.21,0,0,0,138,13.92a16.91,16.91,0,0,0-13.24,0,17.21,17.21,0,0,0-5.41,3.67A17.65,17.65,0,0,0,115.69,23a16.59,16.59,0,0,0-1.35,6.66,16.41,16.41,0,0,0,1.35,6.63,17.35,17.35,0,0,0,3.66,5.41,17,17,0,0,0,5.41,3.66,16.88,16.88,0,0,0,11.59.6,18.13,18.13,0,0,0,4.4-2.08,3.82,3.82,0,0,0,1.31,2,3.65,3.65,0,0,0,2.37.77,3.77,3.77,0,0,0,1.55-.31,3.93,3.93,0,0,0,1.25-.86,4.21,4.21,0,0,0,.84-1.26,3.85,3.85,0,0,0,.32-1.56v-13A16.75,16.75,0,0,0,147.05,23,17.25,17.25,0,0,0,143.41,17.59ZM139.89,33.3a9.59,9.59,0,0,1-2,3,9.26,9.26,0,0,1-2.94,2,9.1,9.1,0,0,1-3.63.74,9,9,0,0,1-3.62-.74,9.33,9.33,0,0,1-2.93-2,9.57,9.57,0,0,1-2-3,9.39,9.39,0,0,1,0-7.21,9.23,9.23,0,0,1,4.93-4.92,9,9,0,0,1,3.58-.72,9.26,9.26,0,0,1,3.63.72,9.07,9.07,0,0,1,2.94,2,9.43,9.43,0,0,1,2,2.94,9.39,9.39,0,0,1,0,7.21Z"/><path class="cls-1" d="M168.94,28.82l9.85-9.07a4,4,0,0,0,.91-1.28A3.65,3.65,0,0,0,180,17a3.55,3.55,0,0,0-.33-1.49,4.08,4.08,0,0,0-.89-1.24,4.54,4.54,0,0,0-1.3-.84,3.79,3.79,0,0,0-1.51-.32,3.59,3.59,0,0,0-2.52,1L162.25,24.44l0-8a3.8,3.8,0,0,0-.3-1.51,3.53,3.53,0,0,0-.83-1.21,4,4,0,0,0-1.23-.8,4,4,0,0,0-3,0,4.18,4.18,0,0,0-1.25.8,3.75,3.75,0,0,0-.86,1.21,3.65,3.65,0,0,0-.32,1.51V42.55a3.65,3.65,0,0,0,.32,1.51,3.81,3.81,0,0,0,.84,1.2,4,4,0,0,0,2.78,1.11,3.73,3.73,0,0,0,1.48-.3,4,4,0,0,0,1.23-.81,3.63,3.63,0,0,0,.83-1.2,3.8,3.8,0,0,0,.29-1.51V33.16l12.86,12a3.69,3.69,0,0,0,1.35.87,5.1,5.1,0,0,0,1.52.32,3.16,3.16,0,0,0,1.45-.34,4.08,4.08,0,0,0,1.21-.89,4.44,4.44,0,0,0,.84-1.28,3.73,3.73,0,0,0,.32-1.52,3.34,3.34,0,0,0-1.05-2.49Z"/><path class="cls-1" d="M213.24,17.59a17.3,17.3,0,0,0-5.43-3.67,16.59,16.59,0,0,0-6.66-1.35,16.38,16.38,0,0,0-6.63,1.35A17.27,17.27,0,0,0,185.41,23a16.59,16.59,0,0,0-1.35,6.66,16.41,16.41,0,0,0,1.35,6.63,17.31,17.31,0,0,0,9.11,9.07,16.38,16.38,0,0,0,6.63,1.35,16.59,16.59,0,0,0,6.66-1.35,17.1,17.1,0,0,0,5.43-3.66,17.35,17.35,0,0,0,3.66-5.41,16.4,16.4,0,0,0,1.34-6.63A16.58,16.58,0,0,0,216.9,23,17.65,17.65,0,0,0,213.24,17.59ZM209.75,33.3a9.21,9.21,0,0,1-4.95,4.94,9.1,9.1,0,0,1-3.66.74,9,9,0,0,1-3.62-.74,9.53,9.53,0,0,1-3-2,9.68,9.68,0,0,1-2-3,9.27,9.27,0,0,1,0-7.21,9.51,9.51,0,0,1,2-2.94,9.34,9.34,0,0,1,13.16,0,9.51,9.51,0,0,1,2,2.94,8.9,8.9,0,0,1,.74,3.61A9,9,0,0,1,209.75,33.3Z"/><path class="cls-1" d="M255.74,23a17.65,17.65,0,0,0-3.66-5.45,17.18,17.18,0,0,0-5.43-3.67,17,17,0,0,0-13.26,0A17.69,17.69,0,0,0,228,17.59a17.25,17.25,0,0,0-3.7,5.45,16.59,16.59,0,0,0-1.35,6.66V54.42a4.15,4.15,0,0,0,.32,1.6,3.84,3.84,0,0,0,.86,1.29,4.09,4.09,0,0,0,1.26.86,3.73,3.73,0,0,0,1.52.32,3.52,3.52,0,0,0,2.8-1.18,4.24,4.24,0,0,0,1-2.89V44A17.25,17.25,0,0,0,235.06,46a17.06,17.06,0,0,0,11.59-.62,17,17,0,0,0,5.43-3.66,17.35,17.35,0,0,0,3.66-5.41,16.41,16.41,0,0,0,1.35-6.63A16.59,16.59,0,0,0,255.74,23ZM248.59,33.3a9.24,9.24,0,0,1-4.94,4.94,9.22,9.22,0,0,1-7.24,0,9.51,9.51,0,0,1-3-2,9.65,9.65,0,0,1-2-3,9.15,9.15,0,0,1,0-7.21,9.49,9.49,0,0,1,2-2.94,9.31,9.31,0,0,1,3-2,9.28,9.28,0,0,1,12.18,4.92,9.39,9.39,0,0,1,0,7.21Z"/><path class="cls-1" d="M37.56,22.9a13.29,13.29,0,0,0,2.63-4.08,12.79,12.79,0,0,0,.94-4.92,14.36,14.36,0,0,0-1-5.34,13.14,13.14,0,0,0-2.82-4.43,13.29,13.29,0,0,0-4.2-2.89A12.67,12.67,0,0,0,27.93.17H11.19A3.89,3.89,0,0,0,8.45,1.38,4,4,0,0,0,7.37,4.23v8.28a4.43,4.43,0,0,1,.72-.94,5.06,5.06,0,0,1,1.51-1,4.61,4.61,0,0,1,3.66,0,4.66,4.66,0,0,1,1.45,1,4.32,4.32,0,0,1,.68.95V8.23H27.54a6.91,6.91,0,0,1,2.19.4,5.07,5.07,0,0,1,1.79,1,4.88,4.88,0,0,1,1.21,1.84,6.49,6.49,0,0,1,.45,2.38,4.88,4.88,0,0,1-.42,2,5,5,0,0,1-1.12,1.62A5.28,5.28,0,0,1,27.93,19h.21a3.78,3.78,0,0,0-1.53.32,4,4,0,0,0-2.11,2.14A3.7,3.7,0,0,0,24.18,23a3.77,3.77,0,0,0,.32,1.57,3.84,3.84,0,0,0,.85,1.26,4.21,4.21,0,0,0,1.26.84,3.78,3.78,0,0,0,1.53.32,4.85,4.85,0,0,1,2.1.47,5.85,5.85,0,0,1,2.87,3.08,5.74,5.74,0,0,1,0,4.31,5.61,5.61,0,0,1-2.87,3,4.84,4.84,0,0,1-2.1.46H15.39V34.09a4.66,4.66,0,0,1-.7.95,4.88,4.88,0,0,1-1.47,1,4.6,4.6,0,0,1-1.81.36A4.69,4.69,0,0,1,9.59,36a5.05,5.05,0,0,1-1.5-1,4.69,4.69,0,0,1-.72-.94v8.26a4,4,0,0,0,1,2.7s0,0,0,0l.49.42a2.79,2.79,0,0,0,1.1.64,4.34,4.34,0,0,0,1.32.2H28.14a13.17,13.17,0,0,0,5.27-1.07A13.81,13.81,0,0,0,40.66,38a13.38,13.38,0,0,0,1.07-5.32,13.19,13.19,0,0,0-1.12-5.43A14.44,14.44,0,0,0,37.56,22.9Z"/><path class="cls-2" d="M45.86.14h1.51L49.83,4,52.29.14H53.8V8.22H52.38V2.42L49.83,6.23h0L47.26,2.45V8.22h-1.4Z"/><path class="cls-2" d="M58.41.14h6V1.41H59.83v2.1h4.06V4.78H59.83V7h4.63V8.22h-6Z"/><path class="cls-2" d="M67.76,7h.78a12.11,12.11,0,0,0,1-5.67V.14H75.2V7h1V9.4H74.83V8.22H69.14L69,9.4H67.76Zm6,0V1.42H70.93v.92A10.81,10.81,0,0,1,70.06,7Z"/><path class="cls-2" d="M80,.14h1.4V6L85.49.14h1.33V8.22H85.43V2.33L81.35,8.22H80Z"/><path class="cls-2" d="M97.69,8.22H91.45V.14h1.42v6.8h3.78V.14h1.41v6.8h1V9.4H97.69Z"/><path class="cls-2" d="M102.87.14h1.39V6l4.09-5.9h1.33V8.22h-1.4V2.33l-4.07,5.89h-1.34Z"/><path class="cls-2" d="M114.3.14h1.42V3.5h3.86V.14H121V8.22h-1.41V4.81h-3.86V8.22H114.3Z"/><path class="cls-2" d="M125.25,4.18A4.09,4.09,0,0,1,129.42,0a4.21,4.21,0,0,1,3.16,1.26l-.91,1.05a3.23,3.23,0,0,0-2.27-1,2.72,2.72,0,0,0-2.66,2.88,2.73,2.73,0,0,0,2.66,2.87,3.14,3.14,0,0,0,2.32-1l.92.92a4.18,4.18,0,0,1-3.28,1.44A4.07,4.07,0,0,1,125.25,4.18Z"/><path class="cls-2" d="M136.66.14h1.42V4.2L141.92.14h1.75l-3.36,3.47,3.51,4.61H142.1l-2.76-3.64-1.26,1.29V8.22h-1.42Z"/><path class="cls-2" d="M150.42.08h1.32l3.56,8.14h-1.5l-.82-2h-3.82l-.84,2h-1.45Zm2,4.93-1.4-3.23L149.67,5Z"/><path class="cls-2" d="M160.8,5.18a2.43,2.43,0,0,1-1.93-2.47c0-1.57,1.14-2.57,3-2.57h3.59V8.22h-1.41V5.42h-1.79l-2,2.8h-1.68Zm3.26-1V1.42H162c-1.07,0-1.7.51-1.7,1.38S161,4.19,162,4.19Z"/><path class="cls-2" d="M182.08.14h1.42V4.2L187.34.14h1.75l-3.36,3.47,3.51,4.61h-1.72l-2.76-3.64L183.5,5.87V8.22h-1.42Z"/><path class="cls-2" d="M192,8.18,192.14,7a1.86,1.86,0,0,0,.46.07c.82,0,1.58-.52,1.58-5.36V.14h5.54V8.22h-1.41V1.42h-2.8v.73c0,5.13-.93,6.16-2.53,6.16A4.56,4.56,0,0,1,192,8.18Z"/><path class="cls-2" d="M204.35.14h1.4V6l4.08-5.9h1.33V8.22h-1.4V2.33l-4.07,5.89h-1.34Z"/><path class="cls-2" d="M215.78.14h1.42V3.5h3.86V.14h1.42V8.22h-1.42V4.81H217.2V8.22h-1.42Z"/><path class="cls-2" d="M227.09.14h1.39V6l4.09-5.9h1.33V8.22h-1.4V2.33l-4.07,5.89h-1.34Z"/><path class="cls-2" d="M238.52.14h1.42V4.2L243.78.14h1.75l-3.36,3.47,3.51,4.61H244L241.2,4.58l-1.26,1.29V8.22h-1.42Z"/><path class="cls-2" d="M252.29.08h1.31l3.56,8.14h-1.5l-.82-2H251l-.83,2h-1.46Zm2,4.93-1.4-3.23L251.54,5Z"/><path class="cls-2" d="M22.39,21.66a4.38,4.38,0,0,0-.85-1.29,4.11,4.11,0,0,0-1.26-.87,3.78,3.78,0,0,0-1.51-.31H15.39V15.72a4,4,0,0,0-.31-1.55A3.93,3.93,0,0,0,13,12a3.68,3.68,0,0,0-1.55-.32A3.9,3.9,0,0,0,9.86,12a4.33,4.33,0,0,0-1.32.87,4.13,4.13,0,0,0-.89,1.29,3.81,3.81,0,0,0-.32,1.55v3.47H3.91a3.7,3.7,0,0,0-1.53.31A4,4,0,0,0,0,23.18a3.83,3.83,0,0,0,1.14,2.76,3.91,3.91,0,0,0,1.24.83,3.87,3.87,0,0,0,1.53.3H7.33v3.86a3.69,3.69,0,0,0,.32,1.56,3.94,3.94,0,0,0,.89,1.27,4,4,0,0,0,1.3.86,4.15,4.15,0,0,0,1.57.31A4.06,4.06,0,0,0,13,34.62a3.92,3.92,0,0,0,1.26-.86,4,4,0,0,0,1.16-2.83V27.07h3.38a4,4,0,0,0,1.51-.3A4.13,4.13,0,0,0,21.54,26a4.05,4.05,0,0,0,.85-1.22,3.73,3.73,0,0,0,.32-1.52A3.92,3.92,0,0,0,22.39,21.66Z"/></g></g></svg>