<svg width="32" height="37" viewBox="0 0 32 37" fill="none" xmlns="http://www.w3.org/2000/svg">
<path d="M1.28 3.76933H10.624C10.9062 2.68538 11.5932 1.72057 12.5711 1.03503C13.549 0.349493 14.7589 -0.0155447 16 0.000507693C18.56 0.000507693 20.864 1.55012 21.376 3.76933H30.72C31.488 3.76933 32 4.34326 32 4.87893V35.8713C31.9944 36.1724 31.8571 36.4594 31.6176 36.6706C31.3782 36.8817 31.0558 37 30.72 37H1.28C0.947788 37.0002 0.628517 36.8845 0.38966 36.6774C0.150804 36.4704 0.0110737 36.1881 0 35.8904L0 4.89806C0.00559688 4.59696 0.14292 4.30988 0.382363 4.09874C0.621806 3.88759 0.944187 3.76929 1.28 3.76933ZM9.216 5.98853V8.53297H22.912V5.98853H20.224C19.328 5.98853 18.816 5.54852 18.944 4.76414C18.944 3.32931 17.664 2.21971 16 2.21971C14.336 2.21971 13.056 3.32931 13.056 4.76414C13.056 5.43373 12.544 5.98853 11.776 5.98853H9.216ZM25.472 5.98853V10.7713H6.656V5.98853H2.56V34.7808H29.44V5.98853H25.472Z" fill="white"/>
<path d="M8.25806 18.1582C6.58065 18.1582 6.58065 16 8.25806 16H23.7419C25.4194 16 25.4194 18.1582 23.7419 18.1582H8.25806ZM8.25806 24.1448C6.58065 24.1448 6.58065 21.9678 8.25806 21.9678H23.7419C25.4194 21.9678 25.4194 24.1448 23.7419 24.1448H8.25806ZM8.25806 30C6.58065 30 6.58065 27.8231 8.25806 27.8231H23.7419C25.4194 27.8231 25.4194 30 23.7419 30H8.25806Z" fill="white"/>
</svg>
