<svg width="30" height="30" viewBox="0 0 30 30" fill="none" xmlns="http://www.w3.org/2000/svg">
<mask id="mask0_1_13" style="mask-type:luminance" maskUnits="userSpaceOnUse" x="0" y="0" width="30" height="30">
<path d="M15 28.3337C16.7513 28.3359 18.4857 27.9921 20.1037 27.3219C21.7217 26.6517 23.1913 25.6683 24.428 24.4283C25.668 23.1916 26.6513 21.722 27.3215 20.1041C27.9917 18.4861 28.3356 16.7516 28.3333 15.0003C28.3355 13.2491 27.9917 11.5146 27.3215 9.89662C26.6513 8.27865 25.6679 6.80907 24.428 5.57234C23.1913 4.33235 21.7217 3.349 20.1037 2.67879C18.4857 2.00858 16.7513 1.66473 15 1.667C13.2487 1.66477 11.5142 2.00864 9.89626 2.67884C8.27829 3.34905 6.80871 4.33238 5.57197 5.57234C4.33202 6.80907 3.34869 8.27865 2.67848 9.89662C2.00827 11.5146 1.6644 13.2491 1.66664 15.0003C1.66437 16.7516 2.00822 18.4861 2.67843 20.1041C3.34864 21.722 4.33199 23.1916 5.57197 24.4283C6.80871 25.6683 8.27829 26.6516 9.89626 27.3218C11.5142 27.992 13.2487 28.3359 15 28.3337Z" fill="white" stroke="white" stroke-width="2.66667" stroke-linejoin="round"/>
<path fill-rule="evenodd" clip-rule="evenodd" d="M14.9999 23.6673C15.4419 23.6673 15.8659 23.4917 16.1784 23.1792C16.491 22.8666 16.6666 22.4427 16.6666 22.0007C16.6666 21.5586 16.491 21.1347 16.1784 20.8221C15.8659 20.5096 15.4419 20.334 14.9999 20.334C14.5579 20.334 14.134 20.5096 13.8214 20.8221C13.5088 21.1347 13.3333 21.5586 13.3333 22.0007C13.3333 22.4427 13.5088 22.8666 13.8214 23.1792C14.134 23.4917 14.5579 23.6673 14.9999 23.6673Z" fill="black"/>
<path d="M15 7V17.6667" stroke="black" stroke-width="2.66667" stroke-linecap="round" stroke-linejoin="round"/>
</mask>
<g mask="url(#mask0_1_13)">
<path d="M-1 -1H31V31H-1V-1Z" fill="#5AD2C8"/>
</g>
</svg>
