<svg width="35" height="35" viewBox="0 0 35 35" fill="none" xmlns="http://www.w3.org/2000/svg">
<path d="M27.9615 34.5H7.03846C5.30435 34.5 3.64127 33.8111 2.41507 32.5849C1.18887 31.3587 0.5 29.6956 0.5 27.9615V9.65382C0.5 7.91971 1.18887 6.25663 2.41507 5.03043C3.64127 3.80423 5.30435 3.11536 7.03846 3.11536H27.9615C29.6956 3.11536 31.3587 3.80423 32.5849 5.03043C33.8111 6.25663 34.5 7.91971 34.5 9.65382V27.9615C34.5 29.6956 33.8111 31.3587 32.5849 32.5849C31.3587 33.8111 29.6956 34.5 27.9615 34.5ZM7.03846 5.73074C5.998 5.73074 5.00015 6.14406 4.26443 6.87978C3.52871 7.6155 3.11538 8.61335 3.11538 9.65382V27.9615C3.11538 29.002 3.52871 29.9998 4.26443 30.7355C5.00015 31.4713 5.998 31.8846 7.03846 31.8846H27.9615C29.002 31.8846 29.9999 31.4713 30.7356 30.7355C31.4713 29.9998 31.8846 29.002 31.8846 27.9615V9.65382C31.8846 8.61335 31.4713 7.6155 30.7356 6.87978C29.9999 6.14406 29.002 5.73074 27.9615 5.73074H7.03846Z" fill="white"/>
<path d="M27.9615 29.2692H22.7308C22.3839 29.2692 22.0513 29.1315 21.8061 28.8862C21.5608 28.641 21.4231 28.3084 21.4231 27.9616V22.7308C21.4231 22.384 21.5608 22.0513 21.8061 21.8061C22.0513 21.5609 22.3839 21.4231 22.7308 21.4231H27.9615C28.3083 21.4231 28.641 21.5609 28.8862 21.8061C29.1314 22.0513 29.2692 22.384 29.2692 22.7308V27.9616C29.2692 28.3084 29.1314 28.641 28.8862 28.8862C28.641 29.1315 28.3083 29.2692 27.9615 29.2692ZM24.0384 26.6539H26.6538V24.0385H24.0384V26.6539Z" fill="white"/>
<path d="M33.1923 13.5769H1.80769C1.46087 13.5769 1.12825 13.4392 0.883014 13.1939C0.637774 12.9487 0.5 12.6161 0.5 12.2692C0.5 11.9224 0.637774 11.5898 0.883014 11.3446C1.12825 11.0993 1.46087 10.9615 1.80769 10.9615H33.1923C33.5391 10.9615 33.8717 11.0993 34.117 11.3446C34.3622 11.5898 34.5 11.9224 34.5 12.2692C34.5 12.6161 34.3622 12.9487 34.117 13.1939C33.8717 13.4392 33.5391 13.5769 33.1923 13.5769Z" fill="white"/>
<path d="M10.9615 8.34615C10.6147 8.34615 10.2821 8.20838 10.0369 7.96314C9.79161 7.7179 9.65384 7.38528 9.65384 7.03846V1.80769C9.65384 1.46087 9.79161 1.12825 10.0369 0.883014C10.2821 0.637774 10.6147 0.5 10.9615 0.5C11.3084 0.5 11.641 0.637774 11.8862 0.883014C12.1314 1.12825 12.2692 1.46087 12.2692 1.80769V7.03846C12.2692 7.38528 12.1314 7.7179 11.8862 7.96314C11.641 8.20838 11.3084 8.34615 10.9615 8.34615Z" fill="white"/>
<path d="M24.0385 8.34615C23.6916 8.34615 23.359 8.20838 23.1138 7.96314C22.8685 7.7179 22.7308 7.38528 22.7308 7.03846V1.80769C22.7308 1.46087 22.8685 1.12825 23.1138 0.883014C23.359 0.637774 23.6916 0.5 24.0385 0.5C24.3853 0.5 24.7179 0.637774 24.9631 0.883014C25.2084 1.12825 25.3462 1.46087 25.3462 1.80769V7.03846C25.3462 7.38528 25.2084 7.7179 24.9631 7.96314C24.7179 8.20838 24.3853 8.34615 24.0385 8.34615Z" fill="white"/>
</svg>
