<svg width="35" height="35" viewBox="0 0 35 35" fill="none" xmlns="http://www.w3.org/2000/svg">
<path fill-rule="evenodd" clip-rule="evenodd" d="M21.1077 1.98805L22.3504 3.23067C22.8314 3.70833 23.474 3.97352 24.1573 3.97352H25.9048C28.7283 3.97352 31.0249 6.27006 31.0249 9.09356V10.8393C31.0249 11.521 31.29 12.1652 31.7711 12.6497L32.9916 13.8719C33.9589 14.8324 34.496 16.1158 34.5012 17.4842C34.5062 18.8526 33.9775 20.1394 33.0137 21.11L31.7677 22.3526C31.29 22.8337 31.0249 23.4746 31.0249 24.1579V25.9071C31.0249 28.7289 28.7283 31.0254 25.9065 31.0254H24.1539C23.4808 31.0254 22.8229 31.2974 22.3453 31.7717L21.1247 32.9922C20.1269 33.9968 18.8112 34.5 17.4955 34.5C16.1917 34.5 14.8879 34.007 13.89 33.0177C13.8764 33.0041 13.8628 32.9905 13.8492 32.9752L12.6423 31.77C12.1613 31.2923 11.5187 31.0271 10.8354 31.0254H9.09127C6.26777 31.0254 3.97293 28.7289 3.97293 25.9071V24.1545C3.97293 23.4712 3.70605 22.8303 3.22668 22.3475L2.00446 21.127C0.0190014 19.1518 -0.00479698 15.9356 1.94497 13.9297L1.99086 13.8838L3.22838 12.6429C3.70605 12.1618 3.97293 11.5176 3.97293 10.8359V9.09356C3.97293 6.27176 6.26777 3.97522 9.08957 3.97352H10.8405C11.5221 3.97352 12.1647 3.70663 12.6525 3.22557L13.8679 2.00675C15.8551 0.00599135 19.1036 -0.00420792 21.1077 1.98805ZM15.6749 3.80693L14.4527 5.03254C13.477 5.99638 12.197 6.52334 10.8405 6.52334H9.09127C7.67527 6.52504 6.52275 7.67756 6.52275 9.09356V10.8359C6.52275 12.1975 5.99409 13.4776 5.03535 14.4431L3.82844 15.6517C3.81654 15.6653 3.80464 15.6755 3.79274 15.6874C2.79491 16.692 2.80001 18.3222 3.80464 19.3201L5.03195 20.5474C5.99409 21.5129 6.52275 22.7929 6.52275 24.1545V25.9071C6.52275 27.3231 7.67357 28.4756 9.09127 28.4756H10.8371C12.2004 28.4773 13.4804 29.006 14.4442 29.9664L15.6698 31.1886L15.7038 31.226C16.7067 32.2052 18.3216 32.1933 19.3178 31.192L20.5451 29.9681C21.497 29.0179 22.8127 28.4756 24.1539 28.4756H25.9048C27.3225 28.4756 28.475 27.3231 28.475 25.9071V24.1579C28.475 22.7963 29.002 21.5163 29.9641 20.5525L31.188 19.3269C31.6861 18.8271 31.953 18.1794 31.9513 17.4927C31.9496 16.8076 31.6793 16.1634 31.1914 15.6772L29.9658 14.4499C29.002 13.4793 28.475 12.2009 28.475 10.8393V9.09356C28.475 7.67586 27.3225 6.52334 25.9048 6.52334H24.1573C22.7957 6.52334 21.5157 5.99468 20.5519 5.03764L19.3246 3.80863C18.3029 2.7972 16.6727 2.8023 15.6749 3.80693ZM21.753 20.0471C22.6931 20.0471 23.4529 20.8069 23.4529 21.747C23.4529 22.687 22.6931 23.4469 21.753 23.4469C20.813 23.4469 20.0446 22.687 20.0446 21.747C20.0446 20.8069 20.7977 20.0471 21.7377 20.0471H21.753ZM22.7692 12.2298C23.2673 12.7279 23.2673 13.5354 22.7692 14.0334L14.0301 22.7708C13.7819 23.0207 13.4556 23.1448 13.1292 23.1448C12.8028 23.1448 12.4764 23.0207 12.2282 22.7708C11.7302 22.2727 11.7302 21.467 12.2282 20.9689L20.9656 12.2298C21.4637 11.7318 22.2711 11.7318 22.7692 12.2298ZM13.2536 11.5477C14.1936 11.5477 14.9535 12.3075 14.9535 13.2476C14.9535 14.1876 14.1936 14.9474 13.2536 14.9474C12.3136 14.9474 11.5452 14.1876 11.5452 13.2476C11.5452 12.3075 12.2983 11.5477 13.2383 11.5477H13.2536Z" fill="white"/>
</svg>
