<svg width="689" height="689" viewBox="0 0 689 689" fill="none" xmlns="http://www.w3.org/2000/svg">
<rect x="24.1" y="24.1" width="640.8" height="640.8" rx="320.4" stroke="#AAAAAA" stroke-width="2.2" stroke-dasharray="4.4 4.4"/>
<path d="M345 581C475.891 581 582 474.891 582 344C582 213.109 475.891 107 345 107C214.109 107 108 213.109 108 344C108 474.891 214.109 581 345 581Z" fill="#82E4DB"/>
<path d="M454.289 213.828L582 356.281C580.85 375.565 574.399 447.815 515.684 508.543C447.838 578.689 361.191 580.896 345 580.988L276.924 485.004C273.934 475.632 244.876 378.624 308.156 294.864C361.409 224.408 440.869 215.174 454.289 213.828Z" fill="#5BD2C7"/>
<path d="M463.638 290.678C463.741 289.953 463.822 289.217 463.914 288.482C464.006 287.746 464.063 287.332 464.121 286.711C464.27 285.411 464.408 284.123 464.523 282.847L464.627 281.697C464.719 280.708 464.799 279.719 464.868 278.742C464.868 278.305 464.926 277.868 464.96 277.431C465.018 276.442 465.075 275.441 465.121 274.452C465.121 274.096 465.121 273.739 465.121 273.394C465.236 270.642 465.279 267.928 465.248 265.253C465.248 265.08 465.248 264.919 465.248 264.747C465.248 263.597 465.19 262.367 465.133 261.194C465.133 261.079 465.133 260.964 465.133 260.849C465.236 257.399 465.294 253.949 465.294 250.741C465.294 221.326 447.884 190.945 411.19 190.945H410.971C404.52 189.967 397.368 190.68 389.456 191.911C369.102 193.061 347.679 206.181 344.977 206.664C342.275 206.181 320.829 193.003 300.498 191.911C292.586 190.68 285.434 189.967 278.983 190.945H278.764C242.07 190.945 224.66 221.326 224.66 250.741C224.66 253.995 224.66 257.376 224.821 260.849C224.821 260.964 224.821 261.079 224.821 261.194C224.821 262.344 224.729 263.551 224.706 264.747C224.706 264.919 224.706 265.08 224.706 265.253C224.706 267.932 224.706 270.646 224.821 273.394C224.821 273.739 224.821 274.096 224.821 274.452C224.821 275.441 224.925 276.442 224.982 277.431C224.982 277.868 224.982 278.305 225.074 278.742C225.143 279.719 225.224 280.708 225.316 281.697C225.316 282.088 225.373 282.479 225.419 282.847C225.534 284.123 225.672 285.411 225.81 286.711C225.879 287.297 225.96 287.861 226.029 288.482C226.098 289.102 226.201 289.953 226.305 290.678C226.408 291.402 226.5 292.161 226.603 292.897C226.672 293.449 226.753 294.047 226.833 294.553C226.914 295.059 226.983 295.6 227.063 296.117C235.389 382.925 264.022 497.515 294.909 497.515H295.22H295.875H296.243L296.933 497.446H297.117H297.232C297.516 497.394 297.796 497.324 298.071 497.239L298.301 497.182C298.654 497.068 298.999 496.933 299.336 496.779L299.474 496.699C299.763 496.557 300.043 496.4 300.314 496.227L300.659 495.997L301.291 495.537C301.406 495.434 301.533 495.342 301.648 495.227C301.763 495.112 302.062 494.859 302.257 494.663C302.37 494.562 302.478 494.454 302.579 494.341C302.844 494.065 303.085 493.778 303.338 493.479L303.476 493.307C303.775 492.95 304.051 492.548 304.339 492.157L304.603 491.743C304.799 491.444 304.983 491.133 305.167 490.811L305.305 490.581C305.305 490.512 305.385 490.42 305.431 490.351C306.042 489.234 306.588 488.082 307.064 486.901C309.561 480.637 310.564 473.877 309.996 467.157C309.755 463.937 309.617 460.626 309.617 457.256C309.617 419.999 325.348 389.675 344.977 388.491C364.606 389.641 380.326 419.999 380.326 457.256C380.326 460.626 380.199 463.937 379.958 467.157C379.39 473.877 380.393 480.637 382.89 486.901C383.366 488.082 383.912 489.234 384.523 490.351C384.523 490.42 384.604 490.512 384.649 490.581C384.695 490.65 384.741 490.731 384.776 490.811C384.971 491.133 385.155 491.444 385.351 491.743L385.615 492.157C385.903 492.571 386.179 492.973 386.478 493.307L386.616 493.479C386.857 493.778 387.11 494.065 387.363 494.341L387.697 494.663C387.892 494.859 388.099 495.054 388.306 495.227C388.513 495.399 388.548 495.434 388.663 495.537L389.295 495.997L389.629 496.227C389.916 496.4 390.192 496.561 390.48 496.699L390.618 496.779C390.954 496.935 391.299 497.07 391.653 497.182L391.871 497.239C392.15 497.324 392.435 497.394 392.722 497.446H392.837H393.021L393.711 497.515H394.079H394.734H395.045C425.897 497.515 454.519 382.925 462.891 296.117C462.971 295.6 463.04 295.082 463.121 294.553C463.201 294.024 463.282 293.403 463.351 292.897C463.442 292.138 463.546 291.414 463.638 290.678Z" fill="white"/>
<rect x="322" width="46" height="46" rx="23" fill="#5BD2C7"/>
<path fill-rule="evenodd" clip-rule="evenodd" d="M332 23C332 15.8203 337.82 10 345 10C352.18 10 358 15.8203 358 23C358 30.1797 352.18 36 345 36C337.82 36 332 30.1797 332 23ZM345 12C338.925 12 334 16.9249 334 23C334 29.0751 338.925 34 345 34C351.075 34 356 29.0751 356 23C356 16.9249 351.075 12 345 12ZM345 19C345.718 19 346.3 18.418 346.3 17.7C346.3 16.9821 345.718 16.4 345 16.4C344.282 16.4 343.7 16.9821 343.7 17.7C343.7 18.418 344.282 19 345 19ZM343.6 28.4C343.6 29.1 344.2 29.7 345 29.7C345.8 29.7 346.3 29.1 346.3 28.4V21.6C346.3 20.9 345.7 20.3 345 20.3H344.9C344.2 20.3 343.6 20.9 343.6 21.6V28.4Z" fill="white"/>
<rect x="548" y="93" width="46" height="46" rx="23" fill="#5BD2C7"/>
<path fill-rule="evenodd" clip-rule="evenodd" d="M558 116C558 108.82 563.82 103 571 103C578.18 103 584 108.82 584 116C584 123.18 578.18 129 571 129C563.82 129 558 123.18 558 116ZM571 105C564.925 105 560 109.925 560 116C560 122.075 564.925 127 571 127C577.075 127 582 122.075 582 116C582 109.925 577.075 105 571 105ZM571 112C571.718 112 572.3 111.418 572.3 110.7C572.3 109.982 571.718 109.4 571 109.4C570.282 109.4 569.7 109.982 569.7 110.7C569.7 111.418 570.282 112 571 112ZM569.6 121.4C569.6 122.1 570.2 122.7 571 122.7C571.8 122.7 572.3 122.1 572.3 121.4V114.6C572.3 113.9 571.7 113.3 571 113.3H570.9C570.2 113.3 569.6 113.9 569.6 114.6V121.4Z" fill="white"/>
<rect x="643" y="321" width="46" height="46" rx="23" fill="#5BD2C7"/>
<path fill-rule="evenodd" clip-rule="evenodd" d="M653 344C653 336.82 658.82 331 666 331C673.18 331 679 336.82 679 344C679 351.18 673.18 357 666 357C658.82 357 653 351.18 653 344ZM666 333C659.925 333 655 337.925 655 344C655 350.075 659.925 355 666 355C672.075 355 677 350.075 677 344C677 337.925 672.075 333 666 333ZM666 340C666.718 340 667.3 339.418 667.3 338.7C667.3 337.982 666.718 337.4 666 337.4C665.282 337.4 664.7 337.982 664.7 338.7C664.7 339.418 665.282 340 666 340ZM664.6 349.4C664.6 350.1 665.2 350.7 666 350.7C666.8 350.7 667.3 350.1 667.3 349.4V342.6C667.3 341.9 666.7 341.3 666 341.3H665.9C665.2 341.3 664.6 341.9 664.6 342.6V349.4Z" fill="white"/>
<rect x="93" y="93" width="46" height="46" rx="23" fill="#5BD2C7"/>
<path fill-rule="evenodd" clip-rule="evenodd" d="M103 116C103 108.82 108.82 103 116 103C123.18 103 129 108.82 129 116C129 123.18 123.18 129 116 129C108.82 129 103 123.18 103 116ZM116 105C109.925 105 105 109.925 105 116C105 122.075 109.925 127 116 127C122.075 127 127 122.075 127 116C127 109.925 122.075 105 116 105ZM116 112C116.718 112 117.3 111.418 117.3 110.7C117.3 109.982 116.718 109.4 116 109.4C115.282 109.4 114.7 109.982 114.7 110.7C114.7 111.418 115.282 112 116 112ZM114.6 121.4C114.6 122.1 115.2 122.7 116 122.7C116.8 122.7 117.3 122.1 117.3 121.4V114.6C117.3 113.9 116.7 113.3 116 113.3H115.9C115.2 113.3 114.6 113.9 114.6 114.6V121.4Z" fill="white"/>
<rect x="93" y="549" width="46" height="46" rx="23" fill="#5BD2C7"/>
<path fill-rule="evenodd" clip-rule="evenodd" d="M103 572C103 564.82 108.82 559 116 559C123.18 559 129 564.82 129 572C129 579.18 123.18 585 116 585C108.82 585 103 579.18 103 572ZM116 561C109.925 561 105 565.925 105 572C105 578.075 109.925 583 116 583C122.075 583 127 578.075 127 572C127 565.925 122.075 561 116 561ZM116 568C116.718 568 117.3 567.418 117.3 566.7C117.3 565.982 116.718 565.4 116 565.4C115.282 565.4 114.7 565.982 114.7 566.7C114.7 567.418 115.282 568 116 568ZM114.6 577.4C114.6 578.1 115.2 578.7 116 578.7C116.8 578.7 117.3 578.1 117.3 577.4V570.6C117.3 569.9 116.7 569.3 116 569.3H115.9C115.2 569.3 114.6 569.9 114.6 570.6V577.4Z" fill="white"/>
<rect x="322" y="643" width="46" height="46" rx="23" fill="#5BD2C7"/>
<path fill-rule="evenodd" clip-rule="evenodd" d="M332 666C332 658.82 337.82 653 345 653C352.18 653 358 658.82 358 666C358 673.18 352.18 679 345 679C337.82 679 332 673.18 332 666ZM345 655C338.925 655 334 659.925 334 666C334 672.075 338.925 677 345 677C351.075 677 356 672.075 356 666C356 659.925 351.075 655 345 655ZM345 662C345.718 662 346.3 661.418 346.3 660.7C346.3 659.982 345.718 659.4 345 659.4C344.282 659.4 343.7 659.982 343.7 660.7C343.7 661.418 344.282 662 345 662ZM343.6 671.4C343.6 672.1 344.2 672.7 345 672.7C345.8 672.7 346.3 672.1 346.3 671.4V664.6C346.3 663.9 345.7 663.3 345 663.3H344.9C344.2 663.3 343.6 663.9 343.6 664.6V671.4Z" fill="white"/>
<rect y="321" width="46" height="46" rx="23" fill="#5BD2C7"/>
<path fill-rule="evenodd" clip-rule="evenodd" d="M10 344C10 336.82 15.8203 331 23 331C30.1797 331 36 336.82 36 344C36 351.18 30.1797 357 23 357C15.8203 357 10 351.18 10 344ZM23 333C16.9249 333 12 337.925 12 344C12 350.075 16.9249 355 23 355C29.0751 355 34 350.075 34 344C34 337.925 29.0751 333 23 333ZM23 340C23.718 340 24.3 339.418 24.3 338.7C24.3 337.982 23.718 337.4 23 337.4C22.282 337.4 21.7 337.982 21.7 338.7C21.7 339.418 22.282 340 23 340ZM21.6 349.4C21.6 350.1 22.2 350.7 23 350.7C23.8 350.7 24.3 350.1 24.3 349.4V342.6C24.3 341.9 23.7 341.3 23 341.3H22.9C22.2 341.3 21.6 341.9 21.6 342.6V349.4Z" fill="white"/>
<rect x="548.896" y="547.774" width="46" height="46" rx="23" fill="#AAAAAA"/>
<path d="M571.896 578.774C571.569 578.774 571.256 578.654 571.025 578.44C570.794 578.225 570.665 577.935 570.665 577.632V563.917C570.665 563.614 570.794 563.323 571.025 563.109C571.256 562.895 571.569 562.774 571.896 562.774C572.222 562.774 572.535 562.895 572.766 563.109C572.997 563.323 573.126 563.614 573.126 563.917V577.632C573.126 577.935 572.997 578.225 572.766 578.44C572.535 578.654 572.222 578.774 571.896 578.774Z" fill="white"/>
<path d="M578.753 572.005H565.038C564.735 572.005 564.445 571.876 564.23 571.645C564.016 571.414 563.896 571.101 563.896 570.774C563.896 570.448 564.016 570.135 564.23 569.904C564.445 569.673 564.735 569.544 565.038 569.544H578.753C579.056 569.544 579.346 569.673 579.561 569.904C579.775 570.135 579.896 570.448 579.896 570.774C579.896 571.101 579.775 571.414 579.561 571.645C579.346 571.876 579.056 572.005 578.753 572.005Z" fill="white"/>
</svg>
