<svg width="35" height="35" viewBox="0 0 35 35" fill="none" xmlns="http://www.w3.org/2000/svg">
<path d="M16.1923 24.0385C16.0202 24.0395 15.8496 24.0065 15.6903 23.9414C15.531 23.8764 15.386 23.7805 15.2638 23.6593L10.0331 18.4285C9.78684 18.1823 9.6485 17.8483 9.6485 17.5C9.6485 17.1518 9.78684 16.8178 10.0331 16.5716C10.2793 16.3253 10.6133 16.187 10.9615 16.187C11.3098 16.187 11.6438 16.3253 11.89 16.5716L16.1923 20.887L24.4177 12.6485C24.6639 12.4023 24.9979 12.2639 25.3462 12.2639C25.6944 12.2639 26.0284 12.4023 26.2746 12.6485C26.5209 12.8947 26.6592 13.2287 26.6592 13.577C26.6592 13.9252 26.5209 14.2592 26.2746 14.5054L17.1208 23.6593C16.9986 23.7805 16.8537 23.8764 16.6943 23.9414C16.535 24.0065 16.3644 24.0395 16.1923 24.0385Z" fill="white"/>
<path d="M17.5 34.5C14.1377 34.5 10.8509 33.503 8.05531 31.635C5.25968 29.767 3.08074 27.112 1.79406 24.0056C0.507366 20.8993 0.170709 17.4811 0.826658 14.1835C1.48261 10.8858 3.1017 7.85668 5.47919 5.47919C7.85668 3.1017 10.8858 1.48261 14.1835 0.826658C17.4811 0.170709 20.8993 0.507366 24.0056 1.79406C27.112 3.08074 29.767 5.25968 31.635 8.05531C33.503 10.8509 34.5 14.1377 34.5 17.5C34.5 22.0087 32.7089 26.3327 29.5208 29.5208C26.3327 32.7089 22.0087 34.5 17.5 34.5ZM17.5 3.11539C14.655 3.11539 11.8739 3.95903 9.50834 5.53964C7.1428 7.12024 5.29909 9.36681 4.21036 11.9953C3.12162 14.6237 2.83675 17.516 3.39179 20.3063C3.94682 23.0966 5.31682 25.6597 7.32855 27.6715C9.34027 29.6832 11.9034 31.0532 14.6937 31.6082C17.484 32.1633 20.3763 31.8784 23.0048 30.7897C25.6332 29.7009 27.8798 27.8572 29.4604 25.4917C31.041 23.1261 31.8846 20.345 31.8846 17.5C31.8846 13.685 30.3691 10.0262 27.6715 7.32855C24.9738 4.63091 21.315 3.11539 17.5 3.11539Z" fill="white"/>
</svg>
