<svg width="35" height="35" viewBox="0 0 35 35" fill="none" xmlns="http://www.w3.org/2000/svg">
<path d="M24.7857 0.5H22.3571C20.5606 0.5 18.8258 1.17711 17.5 2.35938C16.1742 1.17711 14.4394 0.5 12.6429 0.5H10.2143C4.85791 0.5 0.5 4.85791 0.5 10.2143V14.9528C0.5 20.7788 1.87674 26.6119 4.482 31.8248C5.30971 33.4743 6.96868 34.5 8.81383 34.5C10.9021 34.5 12.7472 33.1695 13.4065 31.1892L15.4556 25.0419C15.7497 24.162 16.5691 23.5714 17.5047 23.5714C18.4309 23.5714 19.2503 24.162 19.5444 25.0419L21.5923 31.1892C22.2528 33.1695 24.0979 34.5 26.1862 34.5C28.0313 34.5 29.6903 33.4743 30.518 31.8236C33.1233 26.6119 34.5 20.7788 34.5 14.9528V10.2143C34.5 4.85791 30.1421 0.5 24.7857 0.5ZM32.0714 14.9528C32.0714 20.4029 30.7836 25.8613 28.3456 30.7362C27.9341 31.5603 27.1064 32.0714 26.1862 32.0714C25.1462 32.0714 24.226 31.4086 23.8963 30.4208L21.8472 24.2734C21.2223 22.401 19.4768 21.1429 17.4953 21.1429C15.5232 21.1429 13.7777 22.401 13.1528 24.2734L11.1025 30.4208C10.774 31.4086 9.8538 32.0714 8.81383 32.0714C7.89362 32.0714 7.06592 31.5603 6.65444 30.7374C4.21638 25.8613 2.92857 20.4029 2.92857 14.9528V10.2143C2.92857 6.19671 6.19671 2.92857 10.2143 2.92857H12.6429C14.1607 2.92857 15.6134 3.65548 16.53 4.87333C16.9877 5.48284 18.0123 5.48284 18.47 4.87333C19.3866 3.65548 20.8393 2.92857 22.3571 2.92857H24.7857C28.8033 2.92857 32.0714 6.19671 32.0714 10.2143V14.9528Z" fill="white"/>
</svg>
