<svg width="35" height="35" viewBox="0 0 35 35" fill="none" xmlns="http://www.w3.org/2000/svg">
<path d="M15.9301 8.74855C16.4043 9.22275 16.4043 9.99159 15.93 10.4658L11.68 14.7156C11.221 15.1747 10.4819 15.1914 10.0025 14.7535L8.18111 13.09C7.68592 12.6377 7.65115 11.8696 8.1034 11.3745C8.55567 10.8793 9.32373 10.8445 9.81891 11.2967L10.7834 12.1777L14.2128 8.7485C14.6871 8.27429 15.4559 8.27432 15.9301 8.74855ZM15.93 22.6087C16.4043 22.1344 16.4043 21.3656 15.9301 20.8915C15.4559 20.4172 14.6871 20.4172 14.2128 20.8913L10.7834 24.3206L9.81891 23.4396C9.32373 22.9874 8.55567 23.0221 8.1034 23.5173C7.65115 24.0125 7.68592 24.7806 8.18111 25.2328L10.0025 26.8964C10.4819 27.3343 11.221 27.3175 11.68 26.8585L15.93 22.6087ZM18.7143 23.5714C18.7143 22.9009 19.258 22.3571 19.9286 22.3571H26C26.6705 22.3571 27.2143 22.9009 27.2143 23.5714C27.2143 24.242 26.6705 24.7857 26 24.7857H19.9286C19.258 24.7857 18.7143 24.242 18.7143 23.5714ZM19.9286 10.2143C19.258 10.2143 18.7143 10.7579 18.7143 11.4286C18.7143 12.0992 19.258 12.6429 19.9286 12.6429H26C26.6705 12.6429 27.2143 12.0992 27.2143 11.4286C27.2143 10.7579 26.6705 10.2143 26 10.2143H19.9286ZM0.5 4.14286C0.5 2.13096 2.13096 0.5 4.14286 0.5H30.8571C32.869 0.5 34.5 2.13096 34.5 4.14286V30.8571C34.5 32.869 32.869 34.5 30.8571 34.5H4.14286C2.13096 34.5 0.5 32.869 0.5 30.8571V4.14286ZM4.14286 2.92857C3.47223 2.92857 2.92857 3.47223 2.92857 4.14286V30.8571C2.92857 31.5277 3.47223 32.0714 4.14286 32.0714H30.8571C31.5277 32.0714 32.0714 31.5277 32.0714 30.8571V4.14286C32.0714 3.47223 31.5277 2.92857 30.8571 2.92857H4.14286Z" fill="white"/>
</svg>
