<svg width="34" height="34" viewBox="0 0 34 34" fill="none" xmlns="http://www.w3.org/2000/svg">
<path d="M27.458 34H6.54216C4.80866 34 3.14615 33.3114 1.92037 32.0856C0.694599 30.8598 0.00596619 29.1973 0.00596619 27.4638V9.16246C0.00596619 8.81576 0.143693 8.48326 0.388848 8.23811C0.634003 7.99295 0.966504 7.85522 1.31321 7.85522H27.458C29.1915 7.85522 30.854 8.54386 32.0798 9.76963C33.3056 10.9954 33.9942 12.6579 33.9942 14.3914V27.4638C33.9942 29.1973 33.3056 30.8598 32.0798 32.0856C30.854 33.3114 29.1915 34 27.458 34ZM2.62045 10.4697V27.4638C2.62045 28.5039 3.03363 29.5014 3.76909 30.2369C4.50456 30.9724 5.50206 31.3855 6.54216 31.3855H27.458C28.4981 31.3855 29.4956 30.9724 30.2311 30.2369C30.9665 29.5014 31.3797 28.5039 31.3797 27.4638V14.3914C31.3797 13.3513 30.9665 12.3538 30.2311 11.6183C29.4956 10.8829 28.4981 10.4697 27.458 10.4697H2.62045Z" fill="white"/>
<path d="M30.0725 10.4697C29.7258 10.4697 29.3933 10.332 29.1481 10.0868C28.903 9.84165 28.7652 9.50914 28.7652 9.16244V5.56753C28.7903 5.10959 28.7116 4.65191 28.535 4.22863C28.3585 3.80535 28.0886 3.42741 27.7456 3.123C27.4373 2.89208 27.0806 2.7344 26.7023 2.66192C26.3241 2.58944 25.9343 2.60406 25.5625 2.70468L3.64008 7.68526C3.3452 7.75167 3.08243 7.91822 2.89653 8.15657C2.71062 8.39491 2.61305 8.69032 2.62044 8.9925C2.62044 9.3392 2.48271 9.67171 2.23756 9.91686C1.9924 10.162 1.6599 10.2997 1.3132 10.2997C0.966496 10.2997 0.633995 10.162 0.38884 9.91686C0.143685 9.67171 0.00595815 9.3392 0.00595815 8.9925C-0.00171204 8.09886 0.296063 7.2294 0.849977 6.5281C1.40389 5.82679 2.18072 5.3357 3.05183 5.13615L24.9873 0.155561C25.7417 -0.035197 26.5298 -0.0507317 27.2911 0.110147C28.0525 0.271026 28.7669 0.60405 29.3796 1.0837C30.0275 1.63358 30.5436 2.32198 30.8898 3.09806C31.236 3.87414 31.4034 4.71808 31.3797 5.56753V9.16244C31.3797 9.50914 31.242 9.84165 30.9968 10.0868C30.7517 10.332 30.4192 10.4697 30.0725 10.4697Z" fill="white"/>
<path d="M32.687 26.1565H23.5363C22.1495 26.1565 20.8195 25.6056 19.8389 24.625C18.8582 23.6444 18.3073 22.3144 18.3073 20.9276C18.3073 19.5408 18.8582 18.2108 19.8389 17.2301C20.8195 16.2495 22.1495 15.6986 23.5363 15.6986H32.687C33.0337 15.6986 33.3662 15.8363 33.6113 16.0815C33.8565 16.3266 33.9942 16.6591 33.9942 17.0058V24.8493C33.9942 25.196 33.8565 25.5285 33.6113 25.7736C33.3662 26.0188 33.0337 26.1565 32.687 26.1565ZM23.5363 18.3131C22.8429 18.3131 22.1779 18.5885 21.6876 19.0789C21.1973 19.5692 20.9218 20.2342 20.9218 20.9276C20.9218 21.621 21.1973 22.286 21.6876 22.7763C22.1779 23.2666 22.8429 23.542 23.5363 23.542H31.3797V18.3131H23.5363Z" fill="white"/>
</svg>
