<svg width="25" height="35" viewBox="0 0 25 35" fill="none" xmlns="http://www.w3.org/2000/svg">
<path d="M13.3585 0.855748C12.8842 0.381417 12.1158 0.381417 11.6415 0.855748C11.1808 1.31644 0.357147 12.2563 0.357147 22.3571C0.357147 29.0529 5.80424 34.5 12.5 34.5C19.1952 34.5 24.6429 29.0529 24.6429 22.3571C24.6429 12.2563 13.8198 1.31644 13.3585 0.855748ZM12.5 32.0714C7.14363 32.0714 2.78572 27.7135 2.78572 22.3571C2.78572 14.8194 9.98012 6.25422 12.5006 3.48591C15.0211 6.25185 22.2143 14.8088 22.2143 22.3571C22.2143 27.7135 17.8564 32.0714 12.5 32.0714Z" fill="white"/>
<path d="M12.5 27.2143C9.82182 27.2143 7.64287 25.0158 7.64287 22.3139C7.64287 21.6433 7.09916 21.0996 6.42858 21.0996C5.758 21.0996 5.21429 21.6433 5.21429 22.3139C5.21429 26.3552 8.48243 29.6429 12.5 29.6429C13.1706 29.6429 13.7143 29.0992 13.7143 28.4286C13.7143 27.758 13.1706 27.2143 12.5 27.2143Z" fill="white"/>
</svg>
